<?xml version="1.0" encoding="UTF-8"?>
<svg version="1.1" xmlns="http://www.w3.org/2000/svg" width="1024" height="1024">
<path d="M0 0 C337.92 0 675.84 0 1024 0 C1024 337.92 1024 675.84 1024 1024 C686.08 1024 348.16 1024 0 1024 C0 686.08 0 348.16 0 0 Z " fill="#121E30" transform="translate(0,0)"/>
<path d="M0 0 C1.27407211 -0.00241196 2.54814423 -0.00482391 3.86082458 -0.00730896 C6.54180419 -0.0063337 9.22051268 0.00433853 11.90112305 0.03198242 C15.31275878 0.06609878 18.72289046 0.06001811 22.13459873 0.04131985 C25.4231512 0.02812939 28.71147969 0.04648877 32 0.0625 C33.8190963 0.0550602 33.8190963 0.0550602 35.67494202 0.04747009 C44.76421468 0.1728248 52.87927478 1.89252286 59.43359375 8.62890625 C64.60099727 14.95575488 65.15223499 21.08242627 64.84765625 29.09765625 C64.08228512 35.62497229 61.89701729 39.50969341 57.12109375 43.94140625 C50.85501348 48.8342817 46.57135918 49.62890625 38.43359375 49.62890625 C38.43359375 56.55890625 38.43359375 63.48890625 38.43359375 70.62890625 C40.72296875 70.81453125 43.01234375 71.00015625 45.37109375 71.19140625 C69.00193077 73.73217956 92.97429828 82.70063183 113.43359375 94.62890625 C113.71807373 94.03795166 114.00255371 93.44699707 114.2956543 92.83813477 C115.99376653 89.54137064 118.11221582 86.59280455 120.24609375 83.56640625 C120.67212891 82.94185547 121.09816406 82.31730469 121.53710938 81.67382812 C124.10215313 78.03775248 126.28527609 75.53305206 130.43359375 73.62890625 C137.82019694 72.65331715 142.47197879 75.46116863 148.24609375 79.6875 C159.70556495 88.7240245 159.70556495 88.7240245 161.12109375 96.31640625 C160.74860202 104.06423423 154.10811682 110.88917106 149.43359375 116.62890625 C150.95814658 120.28616686 153.14057356 122.47888551 155.99609375 125.19140625 C161.25851453 130.36335561 165.91661675 135.79981906 170.43359375 141.62890625 C171.06950439 142.44222412 171.06950439 142.44222412 171.71826172 143.27197266 C192.11642375 169.52799196 205.55495211 199.9196245 211.43359375 232.62890625 C211.61164551 233.604646 211.78969727 234.58038574 211.97314453 235.58569336 C213.66258412 245.91331759 213.83220605 256.12213852 213.80859375 266.56640625 C213.80777802 267.92493713 213.80777802 267.92493713 213.8069458 269.31091309 C213.76798512 283.43712178 212.9547304 296.89004203 209.43359375 310.62890625 C209.21928711 311.50272949 209.00498047 312.37655273 208.78417969 313.27685547 C195.863975 365.11753117 163.64047564 409.55265318 117.98828125 437.51953125 C116.80560039 438.22637557 115.62064593 438.92942786 114.43359375 439.62890625 C113.81645508 439.99435547 113.19931641 440.35980469 112.56347656 440.73632812 C75.81031196 462.14629882 30.40722225 470.50637436 -11.56640625 463.62890625 C-12.6951416 463.45149902 -12.6951416 463.45149902 -13.84667969 463.27050781 C-48.54347436 457.64748088 -81.91555318 442.63479363 -108.56640625 419.62890625 C-109.70142578 418.65824219 -109.70142578 418.65824219 -110.859375 417.66796875 C-113.47770332 415.36999055 -116.02854971 413.01561621 -118.56640625 410.62890625 C-119.40413574 409.84217529 -119.40413574 409.84217529 -120.25878906 409.03955078 C-154.06638485 377.02326655 -173.665997 335.36742972 -180.56640625 289.62890625 C-180.75074219 288.44296875 -180.93507813 287.25703125 -181.125 286.03515625 C-187.18585329 235.31700156 -170.38395552 183.49448516 -139.48608398 143.48730469 C-135.23452105 138.09602284 -130.67217368 133.02411062 -125.93115234 128.06103516 C-124.61692158 126.68191572 -123.31979964 125.28655412 -122.0234375 123.890625 C-110.831522 112.1907557 -97.61799669 102.61198744 -83.56640625 94.62890625 C-82.44492187 93.97535156 -81.3234375 93.32179688 -80.16796875 92.6484375 C-58.3689578 80.26120571 -30.8831368 70.62890625 -5.56640625 70.62890625 C-5.56640625 63.69890625 -5.56640625 56.76890625 -5.56640625 49.62890625 C-8.53640625 49.62890625 -11.50640625 49.62890625 -14.56640625 49.62890625 C-22.60734138 46.70492984 -27.22877281 41.62550535 -31.50390625 34.31640625 C-33.35546218 27.89041802 -33.78645364 21.48607998 -30.87890625 15.31640625 C-30.14183558 14.06670166 -29.37181953 12.83569711 -28.56640625 11.62890625 C-27.86515625 10.57703125 -27.16390625 9.52515625 -26.44140625 8.44140625 C-19.34436236 0.57373617 -9.97369064 -0.10921992 0 0 Z " fill="#121D2F" transform="translate(495.56640625,167.37109375)"/>
<path d="M0 0 C1.27407211 -0.00241196 2.54814423 -0.00482391 3.86082458 -0.00730896 C6.54180419 -0.0063337 9.22051268 0.00433853 11.90112305 0.03198242 C15.31275878 0.06609878 18.72289046 0.06001811 22.13459873 0.04131985 C25.4231512 0.02812939 28.71147969 0.04648877 32 0.0625 C33.8190963 0.0550602 33.8190963 0.0550602 35.67494202 0.04747009 C44.76421468 0.1728248 52.87927478 1.89252286 59.43359375 8.62890625 C64.60099727 14.95575488 65.15223499 21.08242627 64.84765625 29.09765625 C64.08228512 35.62497229 61.89701729 39.50969341 57.12109375 43.94140625 C50.85501348 48.8342817 46.57135918 49.62890625 38.43359375 49.62890625 C38.43359375 56.55890625 38.43359375 63.48890625 38.43359375 70.62890625 C40.72296875 70.81453125 43.01234375 71.00015625 45.37109375 71.19140625 C69.00193077 73.73217956 92.97429828 82.70063183 113.43359375 94.62890625 C113.71807373 94.03795166 114.00255371 93.44699707 114.2956543 92.83813477 C115.99376653 89.54137064 118.11221582 86.59280455 120.24609375 83.56640625 C120.67212891 82.94185547 121.09816406 82.31730469 121.53710938 81.67382812 C124.10215313 78.03775248 126.28527609 75.53305206 130.43359375 73.62890625 C137.82019694 72.65331715 142.47197879 75.46116863 148.24609375 79.6875 C159.70556495 88.7240245 159.70556495 88.7240245 161.12109375 96.31640625 C160.74860202 104.06423423 154.10811682 110.88917106 149.43359375 116.62890625 C150.95814658 120.28616686 153.14057356 122.47888551 155.99609375 125.19140625 C161.25851453 130.36335561 165.91661675 135.79981906 170.43359375 141.62890625 C171.06950439 142.44222412 171.06950439 142.44222412 171.71826172 143.27197266 C192.2544853 169.70570143 205.1571165 199.85000382 211.43359375 232.62890625 C211.77390625 234.39621094 211.77390625 234.39621094 212.12109375 236.19921875 C213.80210232 246.26192285 213.43359375 255.08857255 213.43359375 265.62890625 C197.92359375 265.62890625 182.41359375 265.62890625 166.43359375 265.62890625 C165.77359375 258.69890625 165.11359375 251.76890625 164.43359375 244.62890625 C158.63149331 206.62514836 138.94625015 171.11144322 107.859375 147.92578125 C74.00944357 123.44361158 33.55056573 112.7717327 -8.01171875 118.34765625 C-12.93859451 119.16938562 -17.75334764 120.30124289 -22.56640625 121.62890625 C-24.44199219 122.12003906 -24.44199219 122.12003906 -26.35546875 122.62109375 C-50.50423934 129.82889674 -71.65192968 143.12923667 -89.56640625 160.62890625 C-90.42621094 161.42683594 -91.28601563 162.22476563 -92.171875 163.046875 C-120.42782516 189.90097957 -131.57828962 227.85469037 -133.56640625 265.62890625 C-149.40640625 265.62890625 -165.24640625 265.62890625 -181.56640625 265.62890625 C-181.56640625 255.8454735 -181.42234666 247.0326634 -179.94140625 237.50390625 C-179.67408691 235.76258423 -179.67408691 235.76258423 -179.40136719 233.98608398 C-172.90731767 193.96966297 -153.85839286 157.29629742 -125.93115234 128.06103516 C-124.61692158 126.68191572 -123.31979964 125.28655412 -122.0234375 123.890625 C-110.831522 112.1907557 -97.61799669 102.61198744 -83.56640625 94.62890625 C-82.44492187 93.97535156 -81.3234375 93.32179688 -80.16796875 92.6484375 C-58.3689578 80.26120571 -30.8831368 70.62890625 -5.56640625 70.62890625 C-5.56640625 63.69890625 -5.56640625 56.76890625 -5.56640625 49.62890625 C-8.53640625 49.62890625 -11.50640625 49.62890625 -14.56640625 49.62890625 C-22.60734138 46.70492984 -27.22877281 41.62550535 -31.50390625 34.31640625 C-33.35546218 27.89041802 -33.78645364 21.48607998 -30.87890625 15.31640625 C-30.14183558 14.06670166 -29.37181953 12.83569711 -28.56640625 11.62890625 C-27.86515625 10.57703125 -27.16390625 9.52515625 -26.44140625 8.44140625 C-19.34436236 0.57373617 -9.97369064 -0.10921992 0 0 Z " fill="#686EEB" transform="translate(495.56640625,167.37109375)"/>
<path d="M0 0 C15.84 0 31.68 0 48 0 C48.66 7.59 49.32 15.18 50 23 C53.26747152 41.02742905 58.32562071 56.8818627 67 73 C67.83337891 74.57587891 67.83337891 74.57587891 68.68359375 76.18359375 C87.7520723 110.61660178 121.0054158 133.51145956 158 145 C196.92349317 155.69621722 238.17736186 149.75582088 273.25 130.125 C283.79696053 123.90469032 293.11795526 116.39574922 302 108 C302.81082031 107.25363281 303.62164063 106.50726562 304.45703125 105.73828125 C333.7033637 77.8736653 344.99052553 39.12316808 348 0 C363.51 0 379.02 0 395 0 C395 25.5178143 395 25.5178143 393.375 33.5625 C393.10768066 34.97462769 393.10768066 34.97462769 392.83496094 36.4152832 C381.98902506 91.30104076 351.10170947 137.45385245 304.70043945 168.63867188 C301.84589444 170.50426971 298.93770869 172.26893563 296 174 C295.07429199 174.54817383 295.07429199 174.54817383 294.12988281 175.10742188 C257.37671821 196.51739257 211.9736285 204.87746811 170 198 C169.24750977 197.88172852 168.49501953 197.76345703 167.71972656 197.64160156 C133.02293189 192.01857463 99.65085307 177.00588738 73 154 C72.24332031 153.35289062 71.48664063 152.70578125 70.70703125 152.0390625 C68.08870293 149.7410843 65.53785654 147.38670996 63 145 C62.44151367 144.4755127 61.88302734 143.95102539 61.30761719 143.41064453 C27.5000214 111.3943603 7.90040925 69.73852347 1 24 C0.80921875 22.84886719 0.6184375 21.69773437 0.421875 20.51171875 C-0.21480915 13.70273543 0 6.83868558 0 0 Z " fill="#F36877" transform="translate(314,433)"/>
<path d="M0 0 C7.48772951 4.83115482 12.57014656 11.04013931 15.359375 19.55859375 C16.72259236 32.68352373 13.39481754 40.59370509 5.359375 50.55859375 C3.0761974 53.11349702 0.69163613 55.55361761 -1.7265625 57.98046875 C-2.71748398 58.98137543 -2.71748398 58.98137543 -3.72842407 60.00250244 C-5.11581234 61.39994113 -6.50585318 62.79475096 -7.8984375 64.18701172 C-10.01371305 66.30667783 -12.11244335 68.44185992 -14.2109375 70.578125 C-15.56933064 71.94238459 -16.92867418 73.30569867 -18.2890625 74.66796875 C-18.90703705 75.30031433 -19.5250116 75.93265991 -20.16171265 76.58416748 C-27.17822241 83.52880052 -35.48236445 87.46694349 -45.453125 87.93359375 C-54.94050362 87.67523851 -61.50059425 83.33142934 -68.51171875 77.265625 C-71.98437709 74.48112648 -75.25325357 74.2252616 -79.63671875 74.265625 C-82.78569722 74.72600197 -84.475246 76.32759721 -86.640625 78.55859375 C-88.78448353 82.84631081 -88.09275294 88.11178434 -86.703125 92.55859375 C-79.12070126 103.58757374 -68.45789606 109.97778956 -55.640625 113.55859375 C-52.27869588 113.87068823 -48.94004179 113.99656155 -45.56640625 114.1171875 C-42.640625 114.55859375 -42.640625 114.55859375 -40.74609375 115.96875 C-39.640625 117.55859375 -39.640625 117.55859375 -39.640625 119.55859375 C-38.980625 119.88859375 -38.320625 120.21859375 -37.640625 120.55859375 C-37.640625 121.21859375 -37.640625 121.87859375 -37.640625 122.55859375 C-41.2031077 122.58773196 -44.76555954 122.60543904 -48.328125 122.62109375 C-49.83922852 122.63366211 -49.83922852 122.63366211 -51.38085938 122.64648438 C-52.35732422 122.64970703 -53.33378906 122.65292969 -54.33984375 122.65625 C-55.23533936 122.66148682 -56.13083496 122.66672363 -57.0534668 122.67211914 C-59.640625 122.55859375 -59.640625 122.55859375 -62.14892578 121.75512695 C-64.83541893 121.26476881 -64.83541893 121.26476881 -67.16088867 123.47705078 C-68.03463135 124.41403809 -68.90837402 125.35102539 -69.80859375 126.31640625 C-70.28831131 126.81647186 -70.76802887 127.31653748 -71.26228333 127.83175659 C-72.79932291 129.43546546 -74.31541861 131.05693448 -75.828125 132.68359375 C-90.09823281 147.99695308 -90.09823281 147.99695308 -101.1875 150.29296875 C-111.79228115 150.34469939 -120.06994699 147.25911991 -128.19140625 140.40625 C-134.34683631 134.00325237 -136.63843453 127.62853109 -137.265625 118.87109375 C-136.51864207 103.56365072 -125.45442093 93.31467713 -115.13549805 83.25073242 C-112.82150071 80.98962086 -110.54154337 78.69783356 -108.26367188 76.40039062 C-106.78054511 74.92907259 -105.29558019 73.45960465 -103.80859375 71.9921875 C-103.13845749 71.31820419 -102.46832123 70.64422089 -101.77787781 69.94981384 C-94.29687181 62.72163785 -85.8277772 58.18405219 -75.3203125 58.3515625 C-67.54875455 58.95198899 -62.04983945 62.33430274 -55.90234375 66.9375 C-50.87709147 70.53936476 -46.78191146 71.46719763 -40.640625 70.55859375 C-37.14172496 68.44467498 -35.93483814 67.44123316 -34.640625 63.55859375 C-33.89743905 58.26221796 -33.8973768 53.86839819 -37.015625 49.37109375 C-44.68265676 40.48593545 -57.12007318 33.41219546 -68.93066406 32.35327148 C-69.74760742 32.31661377 -70.56455078 32.27995605 -71.40625 32.2421875 C-72.29570312 32.20029297 -73.18515625 32.15839844 -74.1015625 32.11523438 C-75.48214844 32.05625977 -75.48214844 32.05625977 -76.890625 31.99609375 C-77.82648438 31.95291016 -78.76234375 31.90972656 -79.7265625 31.86523438 C-82.03111141 31.75941325 -84.33576339 31.65732818 -86.640625 31.55859375 C-85.980625 30.89859375 -85.320625 30.23859375 -84.640625 29.55859375 C-86.620625 29.55859375 -88.600625 29.55859375 -90.640625 29.55859375 C-90.640625 28.56859375 -90.640625 27.57859375 -90.640625 26.55859375 C-88.990625 25.89859375 -87.340625 25.23859375 -85.640625 24.55859375 C-85.640625 24.22859375 -85.640625 23.89859375 -85.640625 23.55859375 C-81.74485476 23.5003744 -77.84919698 23.46492345 -73.953125 23.43359375 C-72.85033203 23.41683594 -71.74753906 23.40007812 -70.61132812 23.3828125 C-69.54462891 23.37636719 -68.47792969 23.36992187 -67.37890625 23.36328125 C-65.90997925 23.3475708 -65.90997925 23.3475708 -64.41137695 23.33154297 C-61.46949728 23.5726169 -59.30824774 24.32803833 -56.640625 25.55859375 C-55.980625 24.23859375 -55.320625 22.91859375 -54.640625 21.55859375 C-53.980625 21.55859375 -53.320625 21.55859375 -52.640625 21.55859375 C-52.25777344 20.68654297 -52.25777344 20.68654297 -51.8671875 19.796875 C-48.08646458 12.89765771 -40.57430233 7.59322906 -34.640625 2.55859375 C-33.3721875 1.44484375 -33.3721875 1.44484375 -32.078125 0.30859375 C-22.06527503 -6.88011905 -10.53238148 -5.74918457 0 0 Z " fill="#121D2E" transform="translate(571.640625,361.44140625)"/>
<path d="M0 0 C12.25858938 9.50696718 19.77945266 22.46332468 22.40136719 37.83203125 C23.98191535 53.26427503 20.73999865 68.2758673 11.17626953 80.72949219 C4.26518293 88.88170517 -2.98580884 96.62286937 -10.53173828 104.19067383 C-12.47710736 106.1480272 -14.4029518 108.12336311 -16.32910156 110.09960938 C-30.23159845 124.18293826 -45.22848592 133.94468539 -65.59863281 134.20703125 C-81.80619679 134.28449045 -93.48364283 127.22622768 -104.75097656 116.078125 C-108.31843719 111.74135996 -109.09381737 107.53571742 -108.99316406 102.0546875 C-108.31488885 98.2335133 -106.37271115 96.47401062 -103.59863281 93.83203125 C-100.3732594 92.21934454 -97.09623077 92.37970073 -93.59863281 92.83203125 C-89.47421513 94.74693946 -86.22811813 97.10630296 -82.66113281 99.89453125 C-75.79826175 105.09766766 -69.18967381 106.89970398 -60.59863281 105.83203125 C-54.0993288 104.5424868 -48.93590383 102.5334081 -44.05566406 97.984375 C-43.19537598 97.18378662 -42.33508789 96.38319824 -41.44873047 95.55834961 C-40.50819824 94.65866455 -39.56766602 93.75897949 -38.59863281 92.83203125 C-37.83169098 92.09873093 -37.83169098 92.09873093 -37.04925537 91.35061646 C-33.67200089 88.11099083 -30.33121715 84.83656642 -27.01049805 81.5390625 C-25.85639141 80.39655739 -24.69781091 79.25855477 -23.53491211 78.125 C-14.16661044 69.02935366 -14.16661044 69.02935366 -7.59863281 57.83203125 C-7.17453125 56.95933594 -6.75042969 56.08664062 -6.31347656 55.1875 C-4.15341128 48.06990785 -4.5905404 39.96218706 -7.78613281 33.26953125 C-9.9554201 29.55075305 -12.26996907 26.6059177 -15.59863281 23.83203125 C-16.10007812 23.40277344 -16.60152344 22.97351563 -17.11816406 22.53125 C-23.70234943 17.30399276 -31.72535573 15.11109293 -40.09082031 15.42578125 C-47.89757987 16.69042766 -53.40608623 21.14100445 -58.65332031 26.78125 C-60.61564869 28.84996968 -62.67374833 30.67770103 -64.84863281 32.51953125 C-67.8181875 35.07149231 -70.22903286 37.70077417 -72.59863281 40.83203125 C-74.53613281 43.20703125 -74.53613281 43.20703125 -76.59863281 44.83203125 C-78.27407415 44.54605013 -79.94030176 44.20462623 -81.59863281 43.83203125 C-83.42773383 43.74304433 -85.25955728 43.70142851 -87.09082031 43.69921875 C-88.64349609 43.69728516 -88.64349609 43.69728516 -90.22753906 43.6953125 C-91.83435547 43.70111328 -91.83435547 43.70111328 -93.47363281 43.70703125 C-94.53710938 43.70316406 -95.60058594 43.69929688 -96.69628906 43.6953125 C-102.1040697 43.70203024 -107.27272204 43.87609855 -112.59863281 44.83203125 C-110.59270797 41.2826066 -108.41842375 38.33064933 -105.66113281 35.33203125 C-104.4584375 34.02105469 -104.4584375 34.02105469 -103.23144531 32.68359375 C-101.92820312 31.27207031 -101.92820312 31.27207031 -100.59863281 29.83203125 C-99.69939754 28.84056672 -98.80097801 27.84836181 -97.90332031 26.85546875 C-71.2112175 -2.55296436 -38.77740422 -28.33095629 0 0 Z " fill="#FCF6E6" transform="translate(591.5986328125,342.16796875)"/>
<path d="M0 0 C4.72064516 3.41267456 9.14598071 7.74508642 11.77734375 13.0078125 C12.19788478 17.57715249 12.33859909 21.68886245 10.52734375 25.9453125 C6.49381018 30.69911992 6.49381018 30.69911992 2.80078125 31.36328125 C-3.58416193 31.76919688 -7.18936965 29.68291065 -12.22265625 26.0078125 C-20.1958863 20.61054908 -27.4588675 17.88065848 -37.22265625 19.0078125 C-45.76161148 20.98651286 -50.99713377 26.15480685 -57.22265625 32.0078125 C-57.73068787 32.48489655 -58.23871948 32.96198059 -58.762146 33.45352173 C-62.11084004 36.6085401 -65.41853648 39.80221958 -68.70092773 43.02612305 C-69.83871116 44.13725364 -70.98359393 45.24116155 -72.13549805 46.33764648 C-81.40759106 55.1722896 -90.25590475 64.81915338 -90.84765625 78.3203125 C-90.27461395 86.46183808 -88.27631203 93.08796885 -82.55078125 99.078125 C-74.48941484 105.75986159 -66.21375126 108.79313491 -55.76953125 108.7421875 C-43.84701685 106.27364928 -36.80838902 98.01302713 -28.87719727 89.484375 C-27.39410518 87.8991233 -25.89342481 86.33216867 -24.390625 84.765625 C-23.51688232 83.8286377 -22.64313965 82.89165039 -21.74291992 81.92626953 C-19.22265625 80.0078125 -19.22265625 80.0078125 -16.71118164 80.19995117 C-15.88996826 80.46654541 -15.06875488 80.73313965 -14.22265625 81.0078125 C-10.64120666 81.22065334 -7.0598636 81.19292103 -3.47265625 81.1953125 C-2.04566406 81.21368164 -2.04566406 81.21368164 -0.58984375 81.23242188 C5.51069971 81.24495724 10.87130537 80.54508381 16.77734375 79.0078125 C9.153593 89.44188706 0.97342362 99.16823155 -8.17895508 108.27978516 C-9.66449462 109.76214158 -11.13610625 111.25744619 -12.60742188 112.75390625 C-25.89550058 126.13172535 -41.53541876 136.08307121 -60.91015625 136.5078125 C-77.8280174 136.42304154 -91.87790866 128.7399637 -104.00390625 117.3046875 C-115.20246818 105.71181001 -118.63864579 89.73662715 -118.5 74.0234375 C-117.85296421 60.67067897 -111.80521618 48.95330689 -103.28125 38.96484375 C-102.80283661 38.40275208 -102.32442322 37.8406604 -101.83151245 37.26153564 C-96.9244587 31.5621439 -91.7432054 26.15611094 -86.42578125 20.84033203 C-84.84430061 19.25444751 -83.27961499 17.65313434 -81.71484375 16.05078125 C-58.77640722 -7.14155588 -29.70044015 -18.03101623 0 0 Z " fill="#FCF6E6" transform="translate(526.22265625,401.9921875)"/>
<path d="M0 0 C9.41953826 6.9182155 16.67469464 15.71654075 19.125 27.375 C20.79484126 40.68312884 18.99097599 51.42053735 11.1328125 62.39453125 C4.36386669 71.00658761 -4.32694141 77.11693617 -15.48828125 78.45703125 C-27.67335389 79.37373232 -39.95318245 78.3727962 -49.6484375 70.21484375 C-59.34855232 60.94721813 -64.42962284 52.39764071 -64.83203125 38.87084961 C-64.99434558 26.00870708 -62.30798611 16.69369589 -53.7890625 6.71484375 C-39.63178714 -7.17803427 -17.14239676 -10.62990066 0 0 Z " fill="#FBF6E6" transform="translate(302.48828125,722.54296875)"/>
<path d="M0 0 C7.26 0 14.52 0 22 0 C22.33 21.12 22.66 42.24 23 64 C25.97 60.37 28.94 56.74 32 53 C34.29364934 50.28181917 36.59601947 47.57235917 38.9140625 44.875 C39.3471875 44.36710938 39.7803125 43.85921875 40.2265625 43.3359375 C40.89884888 42.56672974 40.89884888 42.56672974 41.5847168 41.78198242 C43.09150065 39.95924041 43.09150065 39.95924041 44.45629883 37.6184082 C48.47817105 31.38919425 48.47817105 31.38919425 52.80664062 30.28222656 C56.06176534 30.11448903 59.18638293 30.21175478 62.4375 30.4375 C63.55060547 30.47810547 64.66371094 30.51871094 65.81054688 30.56054688 C68.5449113 30.6661661 71.27014912 30.81363487 74 31 C70.73319159 35.44849305 67.45080353 39.76570844 63.6875 43.8125 C59.62252169 48.25513677 55.80498929 52.85387495 52.04296875 57.5546875 C50 60 50 60 47.67578125 62.0078125 C47.12277344 62.66523437 46.56976562 63.32265625 46 64 C46.35008356 67.84932782 47.54854733 70.17110346 49.88671875 73.1953125 C50.48919434 73.98502441 51.09166992 74.77473633 51.71240234 75.58837891 C52.36418457 76.42546387 53.0159668 77.26254883 53.6875 78.125 C55.04897303 79.9056417 56.40962881 81.68690853 57.76953125 83.46875 C58.46771973 84.37882813 59.1659082 85.28890625 59.88525391 86.2265625 C63.26353304 90.65709251 66.57172018 95.13842348 69.875 99.625 C70.77545044 100.84147217 70.77545044 100.84147217 71.6940918 102.08251953 C72.24621338 102.83130371 72.79833496 103.58008789 73.3671875 104.3515625 C73.85300293 105.00979004 74.33881836 105.66801758 74.83935547 106.34619141 C76 108 76 108 77 110 C55.48917876 112.66145532 55.48917876 112.66145532 48.70214844 108.63769531 C44.72633348 104.89905613 42.08844789 100.30249586 39.46386719 95.55957031 C37.38445821 91.9237258 34.99151148 88.53585357 32.59106445 85.10668945 C30.42023131 82.00137001 28.3152947 78.8541286 26.21411133 75.70141602 C24.97250974 73.86260684 24.97250974 73.86260684 23 72 C22.67 84.54 22.34 97.08 22 110 C14.74 110 7.48 110 0 110 C0 73.7 0 37.4 0 0 Z " fill="#FCF7E6" transform="translate(789,688)"/>
<path d="M0 0 C22.77 0 45.54 0 69 0 C69 6.6 69 13.2 69 20 C53.82 20 38.64 20 23 20 C23 28.91 23 37.82 23 47 C36.86 47 50.72 47 65 47 C65 58 65 58 64 67 C50.47 67 36.94 67 23 67 C23 81.19 23 95.38 23 110 C15.41 110 7.82 110 0 110 C0 73.7 0 37.4 0 0 Z " fill="#FAF5E6" transform="translate(162,688)"/>
<path d="M0 0 C6.89796097 5.56127475 9.46318705 13.36780428 11.125 21.8125 C11.48955793 26.11680572 11.47741891 30.3820546 11.41796875 34.69921875 C11.41372391 35.88224075 11.40947906 37.06526276 11.40510559 38.28413391 C11.3884564 42.02299803 11.35082955 45.76130174 11.3125 49.5 C11.2974354 52.05142445 11.28375012 54.60285744 11.27148438 57.15429688 C11.23859793 63.37391033 11.18691133 69.5931105 11.125 75.8125 C3.865 75.8125 -3.395 75.8125 -10.875 75.8125 C-10.90078125 72.21214844 -10.9265625 68.61179687 -10.953125 64.90234375 C-10.9915699 61.4039742 -11.03672249 57.90575082 -11.08251953 54.4074707 C-11.11069345 51.98176079 -11.13192571 49.55595967 -11.14599609 47.13012695 C-11.16747427 43.63705884 -11.21415262 40.14508309 -11.265625 36.65234375 C-11.26685364 35.57291 -11.26808228 34.49347626 -11.26934814 33.3813324 C-11.3924751 27.00894668 -12.01120877 22.96349416 -15.875 17.8125 C-21.04899156 14.66752474 -25.96472377 14.03596736 -31.875 14.8125 C-37.08940424 16.58342974 -39.20120669 19.05908968 -41.875 23.8125 C-42.83880077 26.7039023 -43.02612024 28.63903923 -43.08032227 31.65112305 C-43.10026749 32.6319133 -43.12021271 33.61270355 -43.14076233 34.62321472 C-43.16583107 36.20771172 -43.16583107 36.20771172 -43.19140625 37.82421875 C-43.21218735 38.90758011 -43.23296844 39.99094147 -43.25437927 41.10713196 C-43.31981797 44.57135616 -43.37873353 48.0356568 -43.4375 51.5 C-43.48069061 53.84701315 -43.52430507 56.19401853 -43.56835938 58.54101562 C-43.67549361 64.29809854 -43.77677727 70.05525842 -43.875 75.8125 C-50.805 75.8125 -57.735 75.8125 -64.875 75.8125 C-64.875 49.7425 -64.875 23.6725 -64.875 -3.1875 C-58.605 -3.1875 -52.335 -3.1875 -45.875 -3.1875 C-45.545 0.4425 -45.215 4.0725 -44.875 7.8125 C-43.699375 6.2346875 -43.699375 6.2346875 -42.5 4.625 C-32.2058347 -7.42968763 -12.94251451 -8.32822673 0 0 Z " fill="#FAF5E6" transform="translate(763.875,722.1875)"/>
<path d="M0 0 C6.93 0 13.86 0 21 0 C21.01458252 1.50828369 21.02916504 3.01656738 21.04418945 4.57055664 C21.1022909 10.18228511 21.1795239 15.79361731 21.26245117 21.4050293 C21.29564466 23.83074498 21.32369384 26.25653686 21.34643555 28.68237305 C21.38008331 32.17529684 21.43240631 35.66752585 21.48828125 39.16015625 C21.49467117 40.23959 21.5010611 41.31902374 21.50764465 42.4311676 C21.63771929 49.13744012 22.11621448 54.53945738 26.5625 59.875 C30.94889528 63.30783109 36.71237943 62.48383456 42 62 C46.59748775 59.983558 48.5077151 57.83053253 50.38442993 53.20407104 C51.66405129 48.62234016 51.48374543 43.88561947 51.51171875 39.16015625 C51.52966995 38.03806259 51.54762115 36.91596893 51.56611633 35.75987244 C51.6200749 32.19411925 51.65406951 28.62849885 51.6875 25.0625 C51.72068573 22.63735138 51.75517655 20.21222024 51.79101562 17.78710938 C51.87579349 11.85816892 51.94267415 5.92926686 52 0 C58.93 0 65.86 0 73 0 C73 26.07 73 52.14 73 79 C66.4 79 59.8 79 53 79 C52.505 75.535 52.505 75.535 52 72 C51.29875 72.763125 50.5975 73.52625 49.875 74.3125 C42.37903364 81.31959899 34.03666485 81.53219145 24.28515625 81.33984375 C16.95957576 80.95394978 11.55778604 77.97377358 6.5625 72.6875 C1.76993342 66.48694776 -0.13061869 59.03964982 -0.11352539 51.31347656 C-0.11344986 50.17259583 -0.11337433 49.03171509 -0.11329651 47.85626221 C-0.10813522 46.63010193 -0.10297394 45.40394165 -0.09765625 44.140625 C-0.0962413 42.88111023 -0.09482635 41.62159546 -0.09336853 40.32391357 C-0.08872073 36.98334881 -0.07974281 33.64285279 -0.06866455 30.30230713 C-0.05841598 26.8903462 -0.05386354 23.47837815 -0.04882812 20.06640625 C-0.03779963 13.37758275 -0.02053524 6.68880079 0 0 Z " fill="#FCF7E7" transform="translate(417,719)"/>
<path d="M0 0 C7.59 0 15.18 0 23 0 C23 30.03 23 60.06 23 91 C38.51 91 54.02 91 70 91 C70 97.27 70 103.54 70 110 C46.9 110 23.8 110 0 110 C0 73.7 0 37.4 0 0 Z " fill="#FDF7E6" transform="translate(579,688)"/>
<path d="M0 0 C7.97483496 4.02308311 15.00300824 10.6460768 17.9375 19.125 C18.64275383 21.35705333 19.1875 23.0977704 19.1875 25.4375 C3.05252921 28.57912394 3.05252921 28.57912394 -1.390625 25.859375 C-3.04023219 23.79365068 -4.43052269 21.68764255 -5.8125 19.4375 C-10.19555181 16.59443937 -15.75125237 16.68254982 -20.8125 17.4375 C-26.94439183 19.97411166 -31.15509871 24.03982735 -34.0625 30 C-35.96172086 38.70476226 -35.65144242 46.79541618 -30.8125 54.4375 C-27.33652859 58.52176641 -24.41601856 61.15829258 -19.0078125 61.73828125 C-10.95134148 61.846687 -10.95134148 61.846687 -3.8125 58.4375 C-1.77161288 56.17597644 -0.17175488 54.15600977 1.1875 51.4375 C13.85720387 52.40105353 13.85720387 52.40105353 19.1875 53.4375 C18.68626088 61.45732589 15.23876897 66.78544513 9.375 72.1875 C-0.62761869 80.45381507 -11.04000366 81.28084906 -23.59765625 80.65966797 C-33.46005345 79.6703843 -42.52138556 73.48144153 -48.81640625 66.08203125 C-56.02922335 56.36957399 -58.91317871 45.4829557 -57.8125 33.4375 C-55.2126881 21.77548661 -49.1257865 11.9503269 -39.8125 4.4375 C-28.37539245 -2.41116915 -12.82773437 -4.71963812 0 0 Z " fill="#FBF6E6" transform="translate(386.8125,719.5625)"/>
<path d="M0 0 C1.40004272 0.01027222 1.40004272 0.01027222 2.82836914 0.02075195 C12.42971009 0.24517269 19.87292468 2.30596769 26.6875 9.4375 C29.66181629 13.83980369 31.6875 17.04404051 31.6875 22.4375 C28.79009378 22.57289281 25.89904379 22.67176829 23 22.75 C22.18337891 22.79189453 21.36675781 22.83378906 20.52539062 22.87695312 C16.05228915 22.96750174 14.32549832 22.97906673 10.79296875 19.98046875 C10.09816406 19.14128906 9.40335938 18.30210937 8.6875 17.4375 C5.65228606 16.42576202 3.49016921 16.27176486 0.3125 16.25 C-0.62335937 16.23582031 -1.55921875 16.22164062 -2.5234375 16.20703125 C-5.47368154 16.45081892 -7.63614112 17.20637492 -10.3125 18.4375 C-10.72615936 23.04999609 -10.72615936 23.04999609 -9.1875 27.25 C-4.51918575 30.20659902 0.60513742 30.7634901 6 31.3125 C15.19292273 32.41331431 23.59111726 35.07761825 29.6875 42.4375 C33.37320683 48.74027677 34.79616626 55.20807211 33.6875 62.4375 C31.79904007 69.63725349 27.86006287 74.38544342 21.6875 78.4375 C11.84771666 84.09370199 -0.75624407 83.84659202 -11.6640625 81.8125 C-19.69213633 79.27969924 -26.36412808 73.92579802 -30.875 66.8125 C-32.36637234 63.31101711 -32.43297505 61.17746456 -32.3125 57.4375 C-29.22988544 57.2628603 -26.14854167 57.15655933 -23.0625 57.0625 C-22.18980469 57.01222656 -21.31710937 56.96195313 -20.41796875 56.91015625 C-17.91709112 56.85288424 -15.75115927 56.87126627 -13.3125 57.4375 C-10.87109375 60.34375 -10.87109375 60.34375 -9.3125 63.4375 C-4.49781575 66.79658204 0.01000759 67.05552962 5.6875 66.4375 C8.90682007 65.4785536 10.31878979 64.80621021 12.6875 62.4375 C13.2713196 59.5225745 13.2713196 59.5225745 12.6875 56.4375 C8.59515662 51.32207078 1.7606146 50.78130653 -4.3125 49.4375 C-13.6653223 47.29156067 -21.75315482 44.77651776 -27.3125 36.4375 C-30.67549737 31.03964553 -29.84731828 24.54677036 -29.3125 18.4375 C-27.64083509 11.80374115 -22.87417582 7.18002461 -17.3125 3.4375 C-11.48976279 0.31452816 -6.55130455 -0.07305853 0 0 Z " fill="#FBF6E6" transform="translate(534.3125,717.5625)"/>
<path d="M0 0 C7.26 0 14.52 0 22 0 C22 26.07 22 52.14 22 79 C14.74 79 7.48 79 0 79 C0 52.93 0 26.86 0 0 Z " fill="#FDF7E5" transform="translate(661,719)"/>
<path d="M0 0 C6.18122982 3.71339418 10.77572939 8.9552077 12.57421875 16.05859375 C13.45721508 23.68640541 13.02202837 30.61481416 8.57421875 37.05859375 C4.45365105 41.46105139 0.90289109 44.73984264 -5.28125 45.33203125 C-11.61797389 45.52517875 -16.55753384 45.55095441 -21.7734375 41.69140625 C-28.13361919 35.40640402 -29.79671812 28.72789888 -29.88330078 19.97143555 C-29.7303014 13.4137557 -27.71143231 8.93704462 -23.42578125 4.05859375 C-17.17962966 -1.54347026 -7.84423351 -3.04421944 0 0 Z " fill="#121C2D" transform="translate(288.42578125,736.94140625)"/>
<path d="M0 0 C7.59 0 15.18 0 23 0 C23.33 30.03 23.66 60.06 24 91 C38.85 91.33 53.7 91.66 69 92 C69 92.33 69 92.66 69 93 C62.48552273 93.02529705 55.97105807 93.04284444 49.45654297 93.05493164 C47.23909024 93.05996909 45.02164084 93.06679922 42.80419922 93.07543945 C39.62206195 93.08753072 36.43996849 93.0932341 33.2578125 93.09765625 C32.26194122 93.10281754 31.26606995 93.10797882 30.24002075 93.11329651 C28.85881546 93.11340981 28.85881546 93.11340981 27.44970703 93.11352539 C26.6369632 93.115746 25.82421936 93.11796661 24.98684692 93.12025452 C23 93 23 93 21 92 C21 62.3 21 32.6 21 2 C15.06 2 9.12 2 3 2 C3 37.64 3 73.28 3 110 C2.01 110 1.02 110 0 110 C0 73.7 0 37.4 0 0 Z " fill="#EBE9E1" transform="translate(579,688)"/>
<path d="M0 0 C3 2.5 3 2.5 5 5 C5.33 5.33 5.66 5.66 6 6 C6.63023839 11.36602975 7.02006758 15.61157468 3.75 20.0625 C-1.01497436 23.41964103 -3.93153882 24.55767541 -9.73828125 23.72265625 C-13.12485405 22.64059068 -14.8805522 20.93218635 -16.95703125 18.09375 C-18.83227778 14.32921014 -19.09214878 11.05451311 -18 7 C-13.55577411 -0.4208881 -8.27509598 -2.17765684 0 0 Z " fill="#FBF6E6" transform="translate(678,687)"/>
<path d="M0 0 C7.26 0 14.52 0 22 0 C22 21.12 22 42.24 22 64 C21.67 64 21.34 64 21 64 C21 43.54 21 23.08 21 2 C14.73 2 8.46 2 2 2 C2 37.31 2 72.62 2 109 C8.27 109 14.54 109 21 109 C21 96.46 21 83.92 21 71 C21.33 71 21.66 71 22 71 C22 83.87 22 96.74 22 110 C14.74 110 7.48 110 0 110 C0 73.7 0 37.4 0 0 Z " fill="#FBFBF7" transform="translate(789,688)"/>
<path d="M0 0 C7.26 0 14.52 0 22 0 C22 26.07 22 52.14 22 79 C14.74 79 7.48 79 0 79 C0 52.93 0 26.86 0 0 Z M2 2 C2 27.08 2 52.16 2 78 C7.94 78 13.88 78 20 78 C20 52.92 20 27.84 20 2 C14.06 2 8.12 2 2 2 Z " fill="#F3F3EB" transform="translate(661,719)"/>
<path d="M0 0 C22.77 0 45.54 0 69 0 C69 0.66 69 1.32 69 2 C69.99 2.33 70.98 2.66 72 3 C72 9.6 72 16.2 72 23 C71.01 23 70.02 23 69 23 C69 16.4 69 9.8 69 3 C64.05 3 59.1 3 54 3 C54 2.67 54 2.34 54 2 C36.18 1.67 18.36 1.34 0 1 C0 0.67 0 0.34 0 0 Z " fill="#1C2532" transform="translate(162,685)"/>
<path d="M0 0 C0.33 0 0.66 0 1 0 C1.13068337 7.64082749 1.26109266 15.28165961 1.39115143 22.92249775 C1.45155059 26.47038819 1.51204438 30.01827696 1.57275391 33.56616211 C1.64253379 37.64436373 1.71190303 41.72257225 1.78125 45.80078125 C1.80312378 47.07585037 1.82499756 48.35091949 1.84753418 49.66462708 C1.87756531 51.43612373 1.87756531 51.43612373 1.90820312 53.2434082 C1.92596802 54.28487503 1.94373291 55.32634186 1.96203613 56.39936829 C2.04308623 61.95152799 2.04308623 61.95152799 0.5 63.6875 C0.005 64.120625 -0.49 64.55375 -1 65 C-1.02312684 56.67271053 -1.04091683 48.34543437 -1.05181217 40.01812077 C-1.05704026 36.15179882 -1.06413654 32.28549879 -1.07543945 28.41918945 C-1.086271 24.69096599 -1.0922774 20.96276366 -1.09487724 17.23452568 C-1.09673101 15.80910344 -1.10035071 14.38368241 -1.10573006 12.95826912 C-1.11294393 10.96836592 -1.11340808 8.97844166 -1.11352539 6.98852539 C-1.115746 5.85379288 -1.11796661 4.71906036 -1.12025452 3.54994202 C-1 1 -1 1 0 0 Z " fill="#030917" transform="translate(812,688)"/>
<path d="M0 0 C0.33 0 0.66 0 1 0 C1.33 4.62 1.66 9.24 2 14 C16.19 14 30.38 14 45 14 C45.495 14.99 45.495 14.99 46 16 C30.82 16 15.64 16 0 16 C0 10.72 0 5.44 0 0 Z " fill="#5570F9" transform="translate(662,417)"/>
<path d="M0 0 C3.06924063 3.06924063 2.9954838 5.25690681 3.02172852 9.57519531 C2.9798519 10.9930194 2.93190424 12.41067306 2.87890625 13.828125 C2.85529526 14.57713074 2.83168427 15.32613647 2.80735779 16.09783936 C2.73099344 18.48209888 2.64685283 20.86601105 2.5625 23.25 C2.50925201 24.86977486 2.4565118 26.48956651 2.40429688 28.109375 C2.27541537 32.07313521 2.13956072 36.03660201 2 40 C1.34 39.67 0.68 39.34 0 39 C0 26.13 0 13.26 0 0 Z " fill="#020716" transform="translate(811,758)"/>
<path d="M0 0 C2.85631305 2.85631305 3.47005992 6.34977498 4.625 10.125 C7.74252327 19.90590924 11.87030713 29.13503356 17.16699219 37.93994141 C18.1631093 39.59657395 19.08793082 41.29564953 20 43 C19.67 43.66 19.34 44.32 19 45 C17.84046152 43.17284846 16.68619103 41.34224234 15.55078125 39.5 C14.50814975 37.81918347 13.44247931 36.15246262 12.35546875 34.5 C8.33107897 28.10458148 5.5701982 21.67557116 3.0625 14.5625 C2.75586426 13.69786133 2.44922852 12.83322266 2.13330078 11.94238281 C0.71814997 7.76943955 -0.16072072 4.44693225 0 0 Z " fill="#EE7785" transform="translate(365,470)"/>
<path d="M0 0 C7.92 0 15.84 0 24 0 C22.35 1.98 20.7 3.96 19 6 C19 5.01 19 4.02 19 3 C12.73 3 6.46 3 0 3 C0 2.01 0 1.02 0 0 Z " fill="#EFEFEA" transform="translate(839,719)"/>
<path d="M0 0 C2.5625 2.0625 2.5625 2.0625 4 4 C1.61435923 3.42415568 -0.66682784 2.77772405 -3 2 C-9.01039606 1.93961501 -9.01039606 1.93961501 -13.9375 4.875 C-14.288125 5.57625 -14.63875 6.2775 -15 7 C-15.66 7.99 -16.32 8.98 -17 10 C-17.33 9.01 -17.66 8.02 -18 7 C-16.890625 5.2109375 -16.890625 5.2109375 -15.25 3.375 C-14.71890625 2.76398437 -14.1878125 2.15296875 -13.640625 1.5234375 C-9.76514598 -2.07522159 -4.77505745 -1.15497779 0 0 Z " fill="#ECEBE6" transform="translate(678,687)"/>
<path d="M0 0 C-0.66 1.32 -1.32 2.64 -2 4 C-0.02 4 1.96 4 4 4 C3.67 4.66 3.34 5.32 3 6 C0.93359375 6.4140625 0.93359375 6.4140625 -1.5625 6.625 C-2.38878906 6.69976562 -3.21507812 6.77453125 -4.06640625 6.8515625 C-5.02353516 6.92503906 -5.02353516 6.92503906 -6 7 C-6.33 5.68 -6.66 4.36 -7 3 C-10.3 2.67 -13.6 2.34 -17 2 C-17 1.67 -17 1.34 -17 1 C-11.27959989 0.1679418 -5.77759884 -0.12036664 0 0 Z " fill="#090D18" transform="translate(538,476)"/>
<path d="M0 0 C5.61 0 11.22 0 17 0 C17 0.99 17 1.98 17 3 C12.71 3 8.42 3 4 3 C4 2.34 4 1.68 4 1 C2.68 0.67 1.36 0.34 0 0 Z " fill="#EBE9E0" transform="translate(271,717)"/>
<path d="M0 0 C2.31 0.33 4.62 0.66 7 1 C7 1.66 7 2.32 7 3 C7.825 3.2475 8.65 3.495 9.5 3.75 C13.52373471 5.18704811 17.21979024 7.02354515 21 9 C21 9.66 21 10.32 21 11 C16.3970402 9.27502493 12.06744176 7.0904129 7.6875 4.875 C6.94693359 4.50246094 6.20636719 4.12992188 5.44335938 3.74609375 C3.62798783 2.83255194 1.81386718 1.91652513 0 1 C0 0.67 0 0.34 0 0 Z " fill="#0D131E" transform="translate(588,251)"/>
<path d="M0 0 C1 2 1 2 0.22265625 4.86328125 C-0.54815589 7.15495505 -1.31898908 9.44662176 -2.08984375 11.73828125 C-3.13444989 14.87417613 -3.13444989 14.87417613 -2.94140625 17.73046875 C-3 20 -3 20 -4.5 21.8125 C-4.995 22.204375 -5.49 22.59625 -6 23 C-5.69824966 16.18044241 -5.07287898 5.07287898 0 0 Z " fill="#0C141E" transform="translate(371,381)"/>
<path d="M0 0 C4.58739519 1.69873131 8.47373745 4.06126135 12.59765625 6.66015625 C14.88715477 8.08786075 14.88715477 8.08786075 17.24609375 8.49609375 C17.82488281 8.66238281 18.40367187 8.82867188 19 9 C19.33 9.99 19.66 10.98 20 12 C15.09125628 11.4660336 11.7657739 9.22440822 7.75 6.5625 C7.11320312 6.15451172 6.47640625 5.74652344 5.8203125 5.32617188 C1.13555643 2.27111287 1.13555643 2.27111287 0 0 Z " fill="#151523" transform="translate(425,555)"/>
<path d="M0 0 C0.66 0 1.32 0 2 0 C2.33 1.98 2.66 3.96 3 6 C4.32 5.34 5.64 4.68 7 4 C6.02471263 5.33617352 5.04466681 6.6688751 4.0625 8 C3.24458984 9.11375 3.24458984 9.11375 2.41015625 10.25 C1.94480469 10.8275 1.47945312 11.405 1 12 C0.67 12 0.34 12 0 12 C0 8.04 0 4.08 0 0 Z " fill="#191C24" transform="translate(718,719)"/>
<path d="M0 0 C0.66 0 1.32 0 2 0 C0.84826645 2.46800047 -0.04783565 4.04783565 -2 6 C-1.34 6.33 -0.68 6.66 0 7 C0 7.66 0 8.32 0 9 C-2.31 9.33 -4.62 9.66 -7 10 C-4.94196512 6.39843896 -2.75464117 3.11007874 0 0 Z " fill="#EFEEEB" transform="translate(486,377)"/>
<path d="M0 0 C1.31712811 3.62210231 0.68301982 5.67244777 -0.75 9.1875 C-1.26820313 10.50814453 -1.26820313 10.50814453 -1.796875 11.85546875 C-3 14 -3 14 -6 15 C-4.40109514 9.80355921 -2.25861997 4.93387858 0 0 Z " fill="#13161D" transform="translate(321,769)"/>
<path d="M0 0 C0.66 0 1.32 0 2 0 C1.49477778 4.37859255 -1.17827222 6.81651224 -4 10 C-4.8125 8.375 -4.8125 8.375 -5 6 C-2.6875 2.75 -2.6875 2.75 0 0 Z " fill="#EDEBE4" transform="translate(488,436)"/>
<path d="M0 0 C1.17046875 0.11085938 2.3409375 0.22171875 3.546875 0.3359375 C4.43890625 0.43132812 5.3309375 0.52671875 6.25 0.625 C6.25 0.955 6.25 1.285 6.25 1.625 C0.49153561 3.02099137 -4.99153561 3.02099137 -10.75 1.625 C-7.08460332 -0.75206418 -4.25943165 -0.42594317 0 0 Z " fill="#F2EEE4" transform="translate(491.75,393.375)"/>
<path d="M0 0 C3.63 0 7.26 0 11 0 C11 0.99 11 1.98 11 3 C7.37 3 3.74 3 0 3 C0 2.01 0 1.02 0 0 Z " fill="#1F2735" transform="translate(529,733)"/>
<path d="M0 0 C-0.55429687 0.24234375 -1.10859375 0.4846875 -1.6796875 0.734375 C-2.40414063 1.06953125 -3.12859375 1.4046875 -3.875 1.75 C-4.59429687 2.07484375 -5.31359375 2.3996875 -6.0546875 2.734375 C-8.3370674 4.21929686 -9.00375898 5.50415408 -10 8 C-10.99 8 -11.98 8 -13 8 C-10.75373981 2.28224679 -6.06506476 -1.81951943 0 0 Z " fill="#050A13" transform="translate(368,738)"/>
<path d="M0 0 C0 0.66 0 1.32 0 2 C-2.75078884 2.91692961 -4.35948913 3.10886083 -7.1875 3.0625 C-9.0746875 3.0315625 -9.0746875 3.0315625 -11 3 C-8.89427904 -1.21144191 -4.11694326 -0.07767817 0 0 Z " fill="#0C111B" transform="translate(739,736)"/>
<path d="M0 0 C4.23910579 1.51396635 5.93638856 4.09387835 8 8 C8.25 11.875 8.25 11.875 8 15 C7.67 15 7.34 15 7 15 C6.6596875 13.1746875 6.6596875 13.1746875 6.3125 11.3125 C5.27164511 7.01992326 3.29927972 4.95198712 0 2 C0 1.34 0 0.68 0 0 Z " fill="#767DEE" transform="translate(648,252)"/>
<path d="M0 0 C2.64 0 5.28 0 8 0 C5.6870518 2.3129482 4.52095125 2.49580975 1.375 3.125 C0.55773437 3.29257812 -0.25953125 3.46015625 -1.1015625 3.6328125 C-2.04128906 3.81457031 -2.04128906 3.81457031 -3 4 C-3.33 3.34 -3.66 2.68 -4 2 C-2.68 2 -1.36 2 0 2 C0 1.34 0 0.68 0 0 Z " fill="#F6F4EE" transform="translate(478,533)"/>
<path d="M0 0 C1 3 1 3 0.00390625 5.48046875 C-0.47175781 6.37378906 -0.94742187 7.26710938 -1.4375 8.1875 C-1.91058594 9.08855469 -2.38367188 9.98960937 -2.87109375 10.91796875 C-3.24363281 11.60503906 -3.61617188 12.29210937 -4 13 C-5.04449911 9.86650268 -4.93423645 9.01031744 -4 6 C-3.34 6 -2.68 6 -2 6 C-1.34 4.02 -0.68 2.04 0 0 Z " fill="#0B121C" transform="translate(332,347)"/>
<path d="M0 0 C3.3 0.33 6.6 0.66 10 1 C9.34 1.66 8.68 2.32 8 3 C5.8359375 2.9765625 5.8359375 2.9765625 3.375 2.625 C2.55773437 2.51414062 1.74046875 2.40328125 0.8984375 2.2890625 C0.27195312 2.19367187 -0.35453125 2.09828125 -1 2 C-0.67 1.34 -0.34 0.68 0 0 Z " fill="#F2F0E9" transform="translate(667,708)"/>
<path d="M0 0 C-0.66 0.66 -1.32 1.32 -2 2 C-4.72869407 1.96712417 -7.2966618 1.43602229 -10 1 C-10 0.67 -10 0.34 -10 0 C-6.30458414 -0.95024979 -3.69541586 -0.95024979 0 0 Z " fill="#212934" transform="translate(545,475)"/>
</svg>
