<?xml version="1.0" encoding="UTF-8"?>
<svg version="1.1" xmlns="http://www.w3.org/2000/svg" width="500" height="500">
<path d="M0 0 C0.73951904 -0.00191345 1.47903809 -0.0038269 2.2409668 -0.00579834 C3.80094748 -0.00715635 5.36093961 -0.00348676 6.92089844 0.00488281 C9.30429547 0.01558815 11.68693882 0.00497489 14.0703125 -0.0078125 C15.58854332 -0.00649084 17.10677368 -0.0039283 18.625 0 C19.33551514 -0.00404846 20.04603027 -0.00809692 20.77807617 -0.01226807 C24.43971124 0.02231527 27.23974306 0.17416332 30.3125 2.265625 C33.09505155 5.90048964 34.29638472 9.3309388 34.375 13.890625 C32.85190809 18.72868165 30.53082435 21.83023866 26.1875 24.640625 C24.3125 25.265625 24.3125 25.265625 21.3125 25.265625 C21.3125 28.235625 21.3125 31.205625 21.3125 34.265625 C22.776875 34.306875 24.24125 34.348125 25.75 34.390625 C36.40989564 35.33079738 46.59002374 40.01522307 56.3125 44.265625 C56.78300781 43.62753906 57.25351562 42.98945312 57.73828125 42.33203125 C58.36089844 41.50574219 58.98351562 40.67945313 59.625 39.828125 C60.23988281 39.00441406 60.85476563 38.18070313 61.48828125 37.33203125 C63.3125 35.265625 63.3125 35.265625 66.3125 34.265625 C71.75070856 36.11256376 77.62175847 38.88414194 80.3125 44.265625 C80.74045959 48.11726128 80.71356831 49.72224212 78.375 52.890625 C77.694375 53.674375 77.01375 54.458125 76.3125 55.265625 C75.53416466 57.44777068 75.53416466 57.44777068 75.3125 59.265625 C75.9725 59.265625 76.6325 59.265625 77.3125 59.265625 C77.3125 59.925625 77.3125 60.585625 77.3125 61.265625 C77.9725 61.265625 78.6325 61.265625 79.3125 61.265625 C84.3125 66.74181548 84.3125 66.74181548 84.3125 69.265625 C84.9725 69.265625 85.6325 69.265625 86.3125 69.265625 C103.28018735 90.52803819 108.67152168 117.86722481 106.1015625 144.44726562 C103.1628808 167.1329978 90.81642494 189.55575381 73.3125 204.265625 C72.6525 204.265625 71.9925 204.265625 71.3125 204.265625 C71.3125 204.925625 71.3125 205.585625 71.3125 206.265625 C69.05332866 207.96753408 66.80368149 209.53759822 64.4375 211.078125 C63.75220215 211.52808838 63.0669043 211.97805176 62.36083984 212.44165039 C54.38175316 217.61147657 46.42794975 221.53789572 37.3125 224.265625 C36.260625 224.61625 35.20875 224.966875 34.125 225.328125 C8.56511952 231.61334151 -16.81229216 227.87298387 -39.6875 215.265625 C-39.6875 214.605625 -39.6875 213.945625 -39.6875 213.265625 C-40.22890625 213.18183594 -40.7703125 213.09804688 -41.328125 213.01171875 C-44.50497823 212.00711781 -46.75353503 210.29139567 -49.4375 208.328125 C-50.91476563 207.26271484 -50.91476563 207.26271484 -52.421875 206.17578125 C-53.16953125 205.54542969 -53.9171875 204.91507813 -54.6875 204.265625 C-54.6875 203.605625 -54.6875 202.945625 -54.6875 202.265625 C-55.3475 202.265625 -56.0075 202.265625 -56.6875 202.265625 C-56.6875 201.605625 -56.6875 200.945625 -56.6875 200.265625 C-57.28175781 200.00265625 -57.87601563 199.7396875 -58.48828125 199.46875 C-72.86199373 191.60533358 -81.82244323 167.45341253 -86.1796875 152.671875 C-90.01472142 134.49971425 -89.45747269 116.85563882 -83.6875 99.265625 C-83.31367188 98.06421875 -82.93984375 96.8628125 -82.5546875 95.625 C-78.56316852 84.06913386 -71.13247662 72.1082875 -62.6875 63.265625 C-62.0275 63.265625 -61.3675 63.265625 -60.6875 63.265625 C-60.0275 61.945625 -59.3675 60.625625 -58.6875 59.265625 C-58.0275 59.265625 -57.3675 59.265625 -56.6875 59.265625 C-56.6875 58.605625 -56.6875 57.945625 -56.6875 57.265625 C-41.8736881 43.61865445 -23.42728796 36.27208569 -3.6875 33.265625 C-3.3575 30.625625 -3.0275 27.985625 -2.6875 25.265625 C-3.739375 25.1728125 -3.739375 25.1728125 -4.8125 25.078125 C-9.27428883 23.81718468 -12.39144719 21.09188124 -15.0625 17.328125 C-16.40705892 12.89108057 -16.08035923 9.57355921 -13.9375 5.515625 C-10.09235001 -0.03848055 -6.44712417 -0.03673523 0 0 Z M-37.6875 74.265625 C-38.574375 74.925625 -39.46125 75.585625 -40.375 76.265625 C-43.22188547 78.72779621 -45.40636631 81.26756358 -47.6875 84.265625 C-47.6875 84.925625 -47.6875 85.585625 -47.6875 86.265625 C-48.3475 86.265625 -49.0075 86.265625 -49.6875 86.265625 C-62.18938662 102.79950535 -65.29947598 123.06033956 -62.6875 143.265625 C-61.37832375 150.72962984 -59.05869938 157.48900087 -55.6875 164.265625 C-55.0275 164.265625 -54.3675 164.265625 -53.6875 164.265625 C-53.59339844 164.81863281 -53.49929687 165.37164062 -53.40234375 165.94140625 C-50.65533267 174.87294502 -41.99177757 182.84401604 -34.6875 188.265625 C-32.01600323 189.50354552 -32.01600323 189.50354552 -29.6875 190.265625 C-29.6875 190.925625 -29.6875 191.585625 -29.6875 192.265625 C-7.65638074 202.84750118 11.47286177 205.69818359 34.875 198.328125 C39.56386157 196.65306962 43.93082627 194.62498778 48.3125 192.265625 C48.3125 191.605625 48.3125 190.945625 48.3125 190.265625 C49.03179687 190.02585937 49.75109375 189.78609375 50.4921875 189.5390625 C53.7261417 188.07885603 55.83092703 186.28994752 58.4375 183.890625 C59.28570312 183.11976563 60.13390625 182.34890625 61.0078125 181.5546875 C63.0304265 179.54578614 64.75914003 177.65150469 66.3125 175.265625 C66.3125 174.605625 66.3125 173.945625 66.3125 173.265625 C66.9725 173.265625 67.6325 173.265625 68.3125 173.265625 C70.58188721 170.10145084 72.40783412 166.65877013 74.3125 163.265625 C74.89451172 162.28142578 74.89451172 162.28142578 75.48828125 161.27734375 C83.6480911 146.56448198 83.92742686 125.27858554 79.625 109.328125 C78.9104992 107.28669413 78.14436816 105.2621086 77.3125 103.265625 C76.95027344 102.38390625 76.58804688 101.5021875 76.21484375 100.59375 C69.1884954 85.25487428 56.32830093 70.49786058 40.3125 64.265625 C39.3225 64.265625 38.3325 64.265625 37.3125 64.265625 C37.3125 63.605625 37.3125 62.945625 37.3125 62.265625 C10.26209304 53.40001906 -15.06829536 56.14955721 -37.6875 74.265625 Z " fill="#676CE6" transform="translate(240.6875,81.734375)"/>
<path d="M0 0 C7.92 0 15.84 0 24 0 C24.268125 1.8975 24.53625 3.795 24.8125 5.75 C26.18353245 14.60377996 27.7219038 23.0549642 32 31 C32 31.99 32 32.98 32 34 C32.66 34 33.32 34 34 34 C34.25652344 34.53367188 34.51304687 35.06734375 34.77734375 35.6171875 C39.8459245 45.48129414 46.78277173 52.70720402 56.12890625 58.625 C56.74636719 59.07875 57.36382812 59.5325 58 60 C58 60.66 58 61.32 58 62 C58.50273437 62.10441406 59.00546875 62.20882812 59.5234375 62.31640625 C62.26914014 63.07428947 64.88197763 64.08256263 67.5324707 65.12036133 C74.28784595 67.75835467 80.77910182 70.03075192 88 71 C88.80953125 71.144375 89.6190625 71.28875 90.453125 71.4375 C103.04922473 73.24771793 119.81870802 70.03464122 130.640625 63.375 C133 62 133 62 136 62 C136 61.34 136 60.68 136 60 C137.64753422 58.75764599 139.34525303 57.5815609 141.0625 56.4375 C145.9228424 53.02398633 149.29610661 49.55673566 152.66015625 44.6875 C153.10230469 44.130625 153.54445313 43.57375 154 43 C154.66 43 155.32 43 156 43 C156.26039063 42.29488281 156.52078125 41.58976562 156.7890625 40.86328125 C158.08784427 37.79229081 159.68551335 35.06110284 161.375 32.1875 C166.9393977 21.97451172 168.71621113 11.55409979 170 0 C177.59 0 185.18 0 193 0 C193.48019073 13.06118792 192.69700964 22.87364824 188 35 C187.62746094 36.05703125 187.25492188 37.1140625 186.87109375 38.203125 C182.23925333 50.53318104 174.05876484 60.59481968 165 70 C164.29488281 70.75152344 163.58976563 71.50304687 162.86328125 72.27734375 C161 74 161 74 159 74 C159 74.66 159 75.32 159 76 C156.74082866 77.70190908 154.49118149 79.27197322 152.125 80.8125 C151.43970215 81.26246338 150.7544043 81.71242676 150.04833984 82.17602539 C142.06925316 87.34585157 134.11544975 91.27227072 125 94 C123.948125 94.350625 122.89625 94.70125 121.8125 95.0625 C96.25261952 101.34771651 70.87520784 97.60735887 48 85 C48 84.34 48 83.68 48 83 C47.18789062 82.87431641 47.18789062 82.87431641 46.359375 82.74609375 C43.18252177 81.74149281 40.93396497 80.02577067 38.25 78.0625 C37.26515625 77.35222656 36.2803125 76.64195312 35.265625 75.91015625 C34.51796875 75.27980469 33.7703125 74.64945312 33 74 C33 73.34 33 72.68 33 72 C32.34 72 31.68 72 31 72 C31 71.34 31 70.68 31 70 C30.40574219 69.73703125 29.81148437 69.4740625 29.19921875 69.203125 C15.32133751 61.61096262 6.66667474 38.7364035 2.125 24.5 C-0.12126703 16.20397086 0 8.71474513 0 0 Z " fill="#ED6776" transform="translate(153,212)"/>
<path d="M0 0 C0 0.66 0 1.32 0 2 C0.66 2 1.32 2 2 2 C2.81674796 3.74802146 3.62823451 5.49850189 4.4375 7.25 C4.88996094 8.22453125 5.34242188 9.1990625 5.80859375 10.203125 C9.12174341 17.98087961 8.68277381 25.17349259 5.671875 32.984375 C2.53919575 38.6349086 -2.04903441 43.10959375 -6.6171875 47.62841797 C-7.85290159 48.85409625 -9.05403008 50.11441722 -10.25 51.37890625 C-12 53 -12 53 -14 53 C-14 53.66 -14 54.32 -14 55 C-14.66 55 -15.32 55 -16 55 C-16 55.66 -16 56.32 -16 57 C-16.66 57 -17.32 57 -18 57 C-18 57.66 -18 58.32 -18 59 C-26.022275 63.29764732 -32.87714642 66.1880732 -42 64 C-46.05106544 62.74904263 -49.4608652 61.3594232 -53 59 C-53 58.34 -53 57.68 -53 57 C-53.66 57 -54.32 57 -55 57 C-57.80858753 53.32723169 -58.59885798 50.5912445 -58 46 C-56.9375 44.125 -56.9375 44.125 -55 43 C-51.65676179 42.48565566 -49.19478974 42.26250811 -46.234375 44.08984375 C-45.07108992 44.9937477 -43.90964891 45.90002954 -42.75 46.80859375 C-39.85798637 48.77748696 -37.44971847 49 -34 49 C-28.02820819 47.37132951 -24.84098911 44.16060698 -20.69921875 39.64453125 C-19 38 -19 38 -17 38 C-17 37.34 -17 36.68 -17 36 C-16.34 36 -15.68 36 -15 36 C-14.7525 35.443125 -14.505 34.88625 -14.25 34.3125 C-13 32 -13 32 -10.9375 29.8125 C-8.291795 25.97196049 -7.94116658 22.60581635 -8 18 C-8.8377908 13.90413386 -10.91545303 11.5750034 -14.22265625 9.01171875 C-18.08492806 6.81319479 -22.15457366 6.51374481 -26.4609375 7.6484375 C-29.73122381 9.38923606 -31.26929124 11.66482105 -33.5625 14.5625 C-37.02521339 18.51439336 -39.89390786 20.29201903 -45.1640625 20.9453125 C-50.12135373 21.27210403 -55.0386428 21.2089504 -60 21 C-58.30582336 16.39591811 -56.32257943 13.57177289 -53 10 C-52.34 10 -51.68 10 -51 10 C-51 9.34 -51 8.68 -51 8 C-50.34 8 -49.68 8 -49 8 C-49 7.34 -49 6.68 -49 6 C-48.34 6 -47.68 6 -47 6 C-47 5.34 -47 4.68 -47 4 C-46.34 4 -45.68 4 -45 4 C-45 3.34 -45 2.68 -45 2 C-44.34 2 -43.68 2 -43 2 C-42.61714844 1.09121094 -42.61714844 1.09121094 -42.2265625 0.1640625 C-39.6046173 -4.46191724 -34.0848594 -6.88300977 -29.125 -8.375 C-18.31918581 -10.59972645 -8.29768951 -6.74187273 0 0 Z " fill="#EBE7D9" transform="translate(293,169)"/>
<path d="M0 0 C0 0.66 0 1.32 0 2 C0.66 2 1.32 2 2 2 C3.84753138 5.11770921 4.54282688 7.38115411 4 11 C1.9855179 13.86676299 0.75338697 14.84231436 -2.6875 15.5625 C-5.98657197 15.00228023 -7.61347752 14.18576852 -10.4375 12.5 C-14.51121702 10.08721123 -17.19014693 9.36473639 -22 10 C-25.32186171 10.91114536 -25.32186171 10.91114536 -28 12 C-28 12.66 -28 13.32 -28 14 C-28.66 14 -29.32 14 -30 14 C-30 14.66 -30 15.32 -30 16 C-30.66 16 -31.32 16 -32 16 C-32 16.66 -32 17.32 -32 18 C-32.66 18 -33.32 18 -34 18 C-34 18.66 -34 19.32 -34 20 C-34.66 20 -35.32 20 -36 20 C-36 20.66 -36 21.32 -36 22 C-36.66 22 -37.32 22 -38 22 C-38.33 22.99 -38.66 23.98 -39 25 C-39.66 25 -40.32 25 -41 25 C-41 25.66 -41 26.32 -41 27 C-41.66 27 -42.32 27 -43 27 C-43 27.66 -43 28.32 -43 29 C-43.66 29 -44.32 29 -45 29 C-46.33949834 34.52543066 -47.01562424 39.1138407 -44.25 44.25 C-40.21914234 49.17660381 -37.51876123 50.33832456 -31.31640625 51.1796875 C-28.14931888 50.93401125 -26.54544579 49.88596221 -24 48 C-22.610042 46.28283399 -21.23601732 44.55269373 -19.875 42.8125 C-16.43804528 39.2026497 -14.02281069 37.71499205 -9.125 37.34765625 C-4.38989288 37.26757268 0.28657401 37.56446782 5 38 C3.66546085 41.93476023 2.03548411 44.34880881 -0.88671875 47.28515625 C-2.0478418 48.45208008 -2.0478418 48.45208008 -3.23242188 49.64257812 C-4.04259766 50.44115234 -4.85277344 51.23972656 -5.6875 52.0625 C-6.47833984 52.86494141 -7.26917969 53.66738281 -8.08398438 54.49414062 C-15.0700879 61.44563092 -22.19580494 67 -32.44921875 67 C-39.31523645 66.49530038 -45.21700319 64.8553312 -51 61 C-51 60.34 -51 59.68 -51 59 C-51.66 59 -52.32 59 -53 59 C-53 58.34 -53 57.68 -53 57 C-53.66 57 -54.32 57 -55 57 C-55 56.34 -55 55.68 -55 55 C-55.66 55 -56.32 55 -57 55 C-61.81033757 46.7322323 -62.31758827 38.34563052 -61 29 C-57.57022085 16.04494311 -42.80387675 4.19367041 -32 -3 C-21.2988551 -8.22007068 -9.6062443 -6.57397022 0 0 Z " fill="#E9E5D7" transform="translate(260,197)"/>
<path d="M0 0 C11.88 0 23.76 0 36 0 C36 3.63 36 7.26 36 11 C28.41 11 20.82 11 13 11 C13 14.96 13 18.92 13 23 C19.93 23 26.86 23 34 23 C33.67 26.63 33.34 30.26 33 34 C26.4 34 19.8 34 13 34 C13 40.93 13 47.86 13 55 C8.71 55 4.42 55 0 55 C0 36.85 0 18.7 0 0 Z " fill="#DFDDD2" transform="translate(78,335)"/>
<path d="M0 0 C3.63 0 7.26 0 11 0 C11.33 9.9 11.66 19.8 12 30 C13.711875 27.525 15.42375 25.05 17.1875 22.5 C20.32173909 18.28953305 22.50479193 15.40346884 27.69140625 14.00390625 C30.9154486 14.05699147 33.85233596 14.31462154 37 15 C37 15.99 37 16.98 37 18 C36.34 18 35.68 18 35 18 C35 18.66 35 19.32 35 20 C34.34 20 33.68 20 33 20 C32.61714844 20.84884766 32.61714844 20.84884766 32.2265625 21.71484375 C30.40124087 25.11552258 27.91237452 27.91216716 25.4609375 30.87890625 C23.71638167 32.9825217 23.71638167 32.9825217 24 36 C24.66 36 25.32 36 26 36 C27.63429751 38.0944968 29.14167234 40.17782091 30.625 42.375 C31.04523438 42.97828125 31.46546875 43.5815625 31.8984375 44.203125 C35 48.73462865 35 48.73462865 35 51 C35.66 51 36.32 51 37 51 C37.66 52.32 38.32 53.64 39 55 C33.81191479 55.66877661 29.16823832 55.96480735 24 55 C20.32917897 51.85579465 18.04885287 48.35953997 16 44 C16 43.34 16 42.68 16 42 C15.34 42 14.68 42 14 42 C13.34 41.01 12.68 40.02 12 39 C11.67 44.28 11.34 49.56 11 55 C7.37 55 3.74 55 0 55 C0 36.85 0 18.7 0 0 Z " fill="#E4E2D3" transform="translate(385,335)"/>
<path d="M0 0 C5.05776521 3.53663282 7.86912906 8.12155217 10.078125 13.828125 C10.86793451 20.34405344 10.77219526 26.15813596 7.328125 31.890625 C2.75863318 37.02499881 -1.80224757 40.30738065 -8.7265625 41.13671875 C-14.73453158 41.47973429 -19.60421106 40.14840896 -24.671875 36.890625 C-29.07867869 32.91696868 -32.38331828 28.61677046 -32.8515625 22.5703125 C-32.98498306 17.60410264 -32.62748765 13.53520504 -30.671875 8.890625 C-30.011875 8.890625 -29.351875 8.890625 -28.671875 8.890625 C-28.506875 8.16875 -28.341875 7.446875 -28.171875 6.703125 C-23.05310171 -2.89457492 -9.29538632 -3.85948789 0 0 Z M-18.671875 11.890625 C-21.3509323 15.90921095 -21.36798194 19.16704221 -20.671875 23.890625 C-18.87793832 26.76092369 -17.68924224 28.38194138 -14.671875 29.890625 C-10.63197152 30.27174797 -8.37865533 30.3146932 -4.859375 28.203125 C-2.5334466 25.7442864 -1.47145284 24.16889415 -0.671875 20.890625 C-0.96933884 16.92444041 -2.33762154 14.08941677 -4.671875 10.890625 C-9.65221529 7.4043868 -13.98019706 8.46696812 -18.671875 11.890625 Z " fill="#E8E4D7" transform="translate(147.671875,351.109375)"/>
<path d="M0 0 C3.3 0 6.6 0 10 0 C10.33 1.32 10.66 2.64 11 4 C11.680625 3.35160156 12.36125 2.70320313 13.0625 2.03515625 C18.20646152 -1.52867879 23.98093824 -0.82897258 30 0 C34.26283911 2.84189274 35.9931411 6.35301448 38 11 C38.34057617 14.34326172 38.34057617 14.34326172 38.29296875 17.9296875 C38.2784668 19.86328125 38.2784668 19.86328125 38.26367188 21.8359375 C38.23861188 23.18229786 38.21321712 24.52865203 38.1875 25.875 C38.17243504 27.24477705 38.15874982 28.61457002 38.14648438 29.984375 C38.11121379 33.32332358 38.06191896 36.66145675 38 40 C34.04 40 30.08 40 26 40 C25.97421875 38.15792969 25.9484375 36.31585938 25.921875 34.41796875 C25.8656062 32.0077884 25.8082586 29.59763307 25.75 27.1875 C25.73582031 25.97255859 25.72164063 24.75761719 25.70703125 23.50585938 C25.67480469 22.34248047 25.64257812 21.17910156 25.609375 19.98046875 C25.58842773 18.90692139 25.56748047 17.83337402 25.54589844 16.72729492 C25.23492574 13.9076313 25.23492574 13.9076313 23.19238281 12.1105957 C19.92321634 10.45453353 17.48456105 11.21104278 14 12 C12.19605125 13.80394875 12.76294211 16.56677799 12.68359375 19.00390625 C12.64169922 20.21884766 12.59980469 21.43378906 12.55664062 22.68554688 C12.51732422 23.96494141 12.47800781 25.24433594 12.4375 26.5625 C12.39431641 27.84576172 12.35113281 29.12902344 12.30664062 30.45117188 C12.20015281 33.63397445 12.09953579 36.81697243 12 40 C8.04 40 4.08 40 0 40 C0 26.8 0 13.6 0 0 Z " fill="#E6E3D8" transform="translate(341,350)"/>
<path d="M0 0 C3.96 0 7.92 0 12 0 C12.01981934 0.83772949 12.03963867 1.67545898 12.06005859 2.53857422 C12.13810612 5.64365834 12.22479635 8.74834539 12.31738281 11.85302734 C12.37454036 13.85886971 12.42168596 15.86498918 12.46875 17.87109375 C12.50742188 19.12792969 12.54609375 20.38476562 12.5859375 21.6796875 C12.6173584 22.84226074 12.6487793 24.00483398 12.68115234 25.20263672 C12.72157869 28.13656482 12.72157869 28.13656482 15 30 C18.45769191 30.58342353 18.45769191 30.58342353 22 30 C24.81907844 26.40664182 25.39633429 23.5429627 25.51171875 19.04296875 C25.54716797 17.93115234 25.58261719 16.81933594 25.61914062 15.67382812 C25.64169922 14.52333984 25.66425781 13.37285156 25.6875 12.1875 C25.72166016 11.01767578 25.75582031 9.84785156 25.79101562 8.64257812 C25.87331637 5.76205212 25.93833933 2.88104172 26 0 C29.63 0 33.26 0 37 0 C37 13.2 37 26.4 37 40 C32.33333333 40 27.66666667 40 23 40 C22.0925 40.350625 21.185 40.70125 20.25 41.0625 C14.87414805 42.61322652 9.94718766 41.47359383 5 39 C2.50942647 36.97064379 1.17466037 34.98073922 0 32 C-0.22705078 28.60839844 -0.22705078 28.60839844 -0.1953125 24.609375 C-0.1924826 23.90476135 -0.18965271 23.20014771 -0.18673706 22.47418213 C-0.17557801 20.2326124 -0.15048193 17.99144814 -0.125 15.75 C-0.11496464 14.22656829 -0.10583976 12.70313029 -0.09765625 11.1796875 C-0.07565291 7.45299414 -0.04115272 3.72653667 0 0 Z " fill="#E8E4D8" transform="translate(203,350)"/>
<path d="M0 0 C4.29 0 8.58 0 13 0 C13 14.85 13 29.7 13 45 C20.59 45 28.18 45 36 45 C36 48.3 36 51.6 36 55 C24.12 55 12.24 55 0 55 C0 36.85 0 18.7 0 0 Z " fill="#E4E1D5" transform="translate(282,335)"/>
<path d="M0 0 C1.3096875 -0.00515625 2.619375 -0.0103125 3.96875 -0.015625 C7.15242072 0.22385466 8.86102529 0.55351625 11.5 2.25 C11.5 2.91 11.5 3.57 11.5 4.25 C12.16 4.25 12.82 4.25 13.5 4.25 C15.26462683 7.33809695 15.5 8.48312136 15.5 12.25 C13.87536158 12.30395478 12.25021459 12.34277195 10.625 12.375 C9.26761719 12.40980469 9.26761719 12.40980469 7.8828125 12.4453125 C5.5 12.25 5.5 12.25 3.5 10.25 C1.28927023 10.00746187 1.28927023 10.00746187 -1.125 10.125 C-2.35089844 10.15207031 -2.35089844 10.15207031 -3.6015625 10.1796875 C-4.54128906 10.21449219 -4.54128906 10.21449219 -5.5 10.25 C-5.5 11.24 -5.5 12.23 -5.5 13.25 C-4.69175781 13.37117188 -3.88351562 13.49234375 -3.05078125 13.6171875 C-1.98214844 13.78476562 -0.91351563 13.95234375 0.1875 14.125 C1.24324219 14.28742188 2.29898437 14.44984375 3.38671875 14.6171875 C6.29794914 15.20893069 8.78955607 16.0531806 11.5 17.25 C11.5 17.91 11.5 18.57 11.5 19.25 C12.16 19.25 12.82 19.25 13.5 19.25 C16.15790964 23.79059563 17.07373919 26.99072406 16.5 32.25 C14.82960956 35.92485897 12.95118836 38.15837069 9.5 40.25 C3.63314876 42.08657952 -3.58169415 42.28953186 -9.375 40.125 C-13.18804532 37.83717281 -15.01843367 35.93475001 -17.5 32.25 C-17.5 30.93 -17.5 29.61 -17.5 28.25 C-13.87 28.25 -10.24 28.25 -6.5 28.25 C-6.17 29.24 -5.84 30.23 -5.5 31.25 C-2.2 31.58 1.1 31.91 4.5 32.25 C4.005 29.775 4.005 29.775 3.5 27.25 C2.71496094 27.10304688 1.92992187 26.95609375 1.12109375 26.8046875 C-4.73353133 25.55474301 -9.96636692 24.38985912 -14.35546875 20.12890625 C-16.60269577 16.43977248 -16.27009634 12.3798972 -15.5 8.25 C-14.46484375 5.9453125 -14.46484375 5.9453125 -13.5 4.25 C-12.84 4.25 -12.18 4.25 -11.5 4.25 C-11.5 3.59 -11.5 2.93 -11.5 2.25 C-7.75380451 -0.15826853 -4.37270385 -0.01721537 0 0 Z " fill="#DAD7CC" transform="translate(261.5,349.75)"/>
<path d="M0 0 C1.91745153 1.31906689 3.06564819 2.59045344 4.40234375 4.4921875 C4.81871094 5.06582031 5.23507813 5.63945312 5.6640625 6.23046875 C6.71484375 8.1796875 6.71484375 8.1796875 7.71484375 13.1796875 C4.08484375 13.5096875 0.45484375 13.8396875 -3.28515625 14.1796875 C-3.94515625 13.1896875 -4.60515625 12.1996875 -5.28515625 11.1796875 C-8.67748858 10.3630149 -11.21834151 9.86252636 -14.59765625 10.8671875 C-16.77622827 12.56163241 -17.44671454 13.52462208 -18.28515625 16.1796875 C-18.95574589 22.10873095 -18.95574589 22.10873095 -16.16015625 27.1796875 C-12.14408284 29.9734777 -9.62627818 29.49605533 -4.97265625 28.8671875 C-4.41578125 28.6403125 -3.85890625 28.4134375 -3.28515625 28.1796875 C-2.95515625 27.1896875 -2.62515625 26.1996875 -2.28515625 25.1796875 C5.46484375 25.0546875 5.46484375 25.0546875 7.71484375 26.1796875 C7.33956894 31.55862649 5.72001379 33.66295283 1.71484375 37.1796875 C1.05484375 37.8396875 0.39484375 38.4996875 -0.28515625 39.1796875 C-6.69060522 41.37544184 -15.23686587 41.13350373 -21.28515625 38.1796875 C-26.33101915 34.74850073 -29.52649208 31.10518667 -31.28515625 25.1796875 C-31.9411743 19.33292664 -31.71737096 14.57920415 -29.28515625 9.1796875 C-28.62515625 9.1796875 -27.96515625 9.1796875 -27.28515625 9.1796875 C-27.12015625 8.4578125 -26.95515625 7.7359375 -26.78515625 6.9921875 C-21.87887293 -2.20709372 -9.12761855 -3.27658102 0 0 Z " fill="#FBF7E7" transform="translate(191.28515625,350.8203125)"/>
<path d="M0 0 C0.33 0 0.66 0 1 0 C1.2475 1.216875 1.495 2.43375 1.75 3.6875 C2.76179 7.63696993 3.97865565 10.14197156 7 13 C11.50068337 15.5965481 14.85311996 16.39133865 20.02392578 15.64160156 C23.45121946 14.52881088 25.2077204 11.68772435 27.3125 8.9375 C30.80911854 4.85222514 33.52792262 2.68900311 38.99609375 2.20703125 C43.70207073 2.11995646 48.32608755 2.47198479 53 3 C51.66546085 6.93476023 50.03548411 9.34880881 47.11328125 12.28515625 C46.33919922 13.06310547 45.56511719 13.84105469 44.76757812 14.64257812 C43.95740234 15.44115234 43.14722656 16.23972656 42.3125 17.0625 C41.52166016 17.86494141 40.73082031 18.66738281 39.91601562 19.49414062 C32.9299121 26.44563092 25.80419506 32 15.55078125 32 C8.68476355 31.49530038 2.78299681 29.8553312 -3 26 C-3 25.34 -3 24.68 -3 24 C-3.66 24 -4.32 24 -5 24 C-5 23.34 -5 22.68 -5 22 C-5.66 22 -6.32 22 -7 22 C-7 21.34 -7 20.68 -7 20 C-7.66 20 -8.32 20 -9 20 C-9 19.01 -9 18.02 -9 17 C-8.01 17.33 -7.02 17.66 -6 18 C-6 18.99 -6 19.98 -6 21 C-5.34 21 -4.68 21 -4 21 C-4 20.01 -4 19.02 -4 18 C-2.625 16.3125 -2.625 16.3125 -1 15 C-0.34 15 0.32 15 1 15 C0.835 14.195625 0.67 13.39125 0.5 12.5625 C-0.09247348 8.34112648 -0.08506709 4.25335455 0 0 Z " fill="#EEEADB" transform="translate(212,232)"/>
<path d="M0 0 C0.495 1.98 0.495 1.98 1 4 C0.2575 3.95875 -0.485 3.9175 -1.25 3.875 C-4.15160379 4.00689108 -5.49645245 4.62708683 -8 6 C-8.721875 6.165 -9.44375 6.33 -10.1875 6.5 C-10.785625 6.665 -11.38375 6.83 -12 7 C-12.33 7.66 -12.66 8.32 -13 9 C-12.01 9 -11.02 9 -10 9 C-10 10.32 -10 11.64 -10 13 C-11.32 13.33 -12.64 13.66 -14 14 C-12.35 14 -10.7 14 -9 14 C-9.8353125 14.30744141 -9.8353125 14.30744141 -10.6875 14.62109375 C-13.27710785 16.16523492 -14.73444074 18.06553145 -16.60449219 20.39355469 C-20.60715541 25.18050462 -23.87323257 28.18403959 -30.234375 29.01171875 C-35.17238228 29.3439836 -40.06004274 29.2538318 -45 29 C-43.30582336 24.39591811 -41.32257943 21.57177289 -38 18 C-37.34 18 -36.68 18 -36 18 C-36 17.34 -36 16.68 -36 16 C-35.34 16 -34.68 16 -34 16 C-34 15.34 -34 14.68 -34 14 C-33.34 14 -32.68 14 -32 14 C-32 13.34 -32 12.68 -32 12 C-31.34 12 -30.68 12 -30 12 C-30 11.34 -30 10.68 -30 10 C-29.34 10 -28.68 10 -28 10 C-27.61714844 9.09121094 -27.61714844 9.09121094 -27.2265625 8.1640625 C-24.6046173 3.53808276 -19.0848594 1.11699023 -14.125 -0.375 C-9.37744067 -1.39638727 -4.75359934 -0.72083269 0 0 Z " fill="#F2EFE0" transform="translate(278,161)"/>
<path d="M0 0 C4.26283911 2.84189274 5.9931411 6.35301448 8 11 C8.34057617 14.34326172 8.34057617 14.34326172 8.29296875 17.9296875 C8.28330078 19.21875 8.27363281 20.5078125 8.26367188 21.8359375 C8.23861188 23.18229786 8.21321712 24.52865203 8.1875 25.875 C8.17243504 27.24477705 8.15874982 28.61457002 8.14648438 29.984375 C8.11121379 33.32332358 8.06191896 36.66145675 8 40 C4.04 40 0.08 40 -4 40 C-4.02578125 38.15792969 -4.0515625 36.31585938 -4.078125 34.41796875 C-4.1343938 32.0077884 -4.1917414 29.59763307 -4.25 27.1875 C-4.26417969 25.97255859 -4.27835937 24.75761719 -4.29296875 23.50585938 C-4.32519531 22.34248047 -4.35742188 21.17910156 -4.390625 19.98046875 C-4.41157227 18.90692139 -4.43251953 17.83337402 -4.45410156 16.72729492 C-4.74919113 13.8916245 -4.74919113 13.8916245 -6.89746094 12.20043945 C-8.90259203 11.05561484 -10.90560782 9.97239637 -13 9 C-12.21625 8.566875 -11.4325 8.13375 -10.625 7.6875 C-7.78301625 6.10779753 -7.78301625 6.10779753 -6 3 C-3.375 2.8125 -3.375 2.8125 -1 3 C-1 2.34 -1 1.68 -1 1 C-4.96 1 -8.92 1 -13 1 C-13.33 1.99 -13.66 2.98 -14 4 C-14.99 3.34 -15.98 2.68 -17 2 C-11.9109845 -1.392677 -5.93350018 -0.67473566 0 0 Z " fill="#DDDBCF" transform="translate(371,350)"/>
<path d="M0 0 C3.96 0 7.92 0 12 0 C12 13.2 12 26.4 12 40 C8.04 40 4.08 40 0 40 C0 26.8 0 13.6 0 0 Z " fill="#D5D2C7" transform="translate(322,350)"/>
<path d="M0 0 C2.97 0 5.94 0 9 0 C10.40027356 36.67065605 10.40027356 36.67065605 9 53 C6.03 53 3.06 53 0 53 C0 35.51 0 18.02 0 0 Z " fill="#FCF7E7" transform="translate(386,336)"/>
<path d="M0 0 C1.91745153 1.31906689 3.06564819 2.59045344 4.40234375 4.4921875 C4.81871094 5.06582031 5.23507813 5.63945312 5.6640625 6.23046875 C6.71484375 8.1796875 6.71484375 8.1796875 7.71484375 13.1796875 C4.08484375 13.5096875 0.45484375 13.8396875 -3.28515625 14.1796875 C-3.94515625 13.1896875 -4.60515625 12.1996875 -5.28515625 11.1796875 C-8.64839626 10.37001861 -11.18800718 9.84444751 -14.53515625 10.8671875 C-16.57750667 12.39895031 -17.87402274 14.06298723 -19.28515625 16.1796875 C-19.94515625 14.5296875 -20.60515625 12.8796875 -21.28515625 11.1796875 C-21.61515625 12.4996875 -21.94515625 13.8196875 -22.28515625 15.1796875 C-22.94515625 14.8496875 -23.60515625 14.5196875 -24.28515625 14.1796875 C-27.07433774 13.07427824 -27.07433774 13.07427824 -29.28515625 13.1796875 C-29.43141925 17.42131449 -29.53157223 20.45412934 -28.16015625 24.4921875 C-27.72703125 25.8225 -27.72703125 25.8225 -27.28515625 27.1796875 C-27.94515625 28.1696875 -28.60515625 29.1596875 -29.28515625 30.1796875 C-30.94742951 26.5385175 -31.55761185 23.67678381 -31.53515625 19.6796875 C-31.5403125 18.761875 -31.54546875 17.8440625 -31.55078125 16.8984375 C-31.26778223 14.0018593 -30.4886587 11.81593097 -29.28515625 9.1796875 C-28.62515625 9.1796875 -27.96515625 9.1796875 -27.28515625 9.1796875 C-27.12015625 8.4578125 -26.95515625 7.7359375 -26.78515625 6.9921875 C-21.87887293 -2.20709372 -9.12761855 -3.27658102 0 0 Z " fill="#E3E0D5" transform="translate(191.28515625,350.8203125)"/>
<path d="M0 0 C3.3 0 6.6 0 10 0 C10 8.91 10 17.82 10 27 C9.34 27 8.68 27 8 27 C7.34 28.32 6.68 29.64 6 31 C6.66 31.33 7.32 31.66 8 32 C8 32.66 8 33.32 8 34 C7.01 34 6.02 34 5 34 C4.67 34.66 4.34 35.32 4 36 C3.01 35.67 2.02 35.34 1 35 C-0.1687481 31.4937557 -0.12514267 28.3522134 -0.09765625 24.70703125 C-0.0962413 24.00100266 -0.09482635 23.29497406 -0.09336853 22.56755066 C-0.08777764 20.31582374 -0.07522688 18.06419679 -0.0625 15.8125 C-0.05748382 14.28450665 -0.05292112 12.75651173 -0.04882812 11.22851562 C-0.0378112 7.48563865 -0.02055287 3.74283627 0 0 Z " fill="#F8F5E7" transform="translate(204,351)"/>
<path d="M0 0 C0.99 0.33 1.98 0.66 3 1 C3 1.99 3 2.98 3 4 C3.3062434 5.33981486 3.63451555 6.67511887 4 8 C5.32 8.33 6.64 8.66 8 9 C7.67 13.62 7.34 18.24 7 23 C7.66 23.33 8.32 23.66 9 24 C8.67 25.65 8.34 27.3 8 29 C7.34 29 6.68 29 6 29 C5.67 29.99 5.34 30.98 5 32 C4.34 32 3.68 32 3 32 C3 32.99 3 33.98 3 35 C2.34 35 1.68 35 1 35 C0.505 33.515 0.505 33.515 0 32 C-0.66 31.67 -1.32 31.34 -2 31 C-4 30 -4 30 -5 27 C-5.07029121 24.42734182 -5.09370832 21.88358569 -5.0625 19.3125 C-5.05798828 18.61060547 -5.05347656 17.90871094 -5.04882812 17.18554688 C-5.03706927 15.45699462 -5.01913454 13.72848635 -5 12 C-4.34 12 -3.68 12 -3 12 C-2.01 8.04 -1.02 4.08 0 0 Z " fill="#FCF7E7" transform="translate(205,218)"/>
<path d="M0 0 C1.86679885 1.15229398 3.52237485 2.45529932 5.23828125 3.8203125 C9.06164217 6.38052314 13.56558939 6 18 6 C17.67 6.66 17.34 7.32 17 8 C16.34 7.67 15.68 7.34 15 7 C15.33 8.32 15.66 9.64 16 11 C15.01 10.67 14.02 10.34 13 10 C13 9.34 13 8.68 13 8 C12.01 8 11.02 8 10 8 C9.9071875 9.3921875 9.9071875 9.3921875 9.8125 10.8125 C9 14 9 14 6.5 15.8125 C5.675 16.204375 4.85 16.59625 4 17 C3.67 17.33 3.34 17.66 3 18 C9.27 18.33 15.54 18.66 22 19 C16.14512692 21.92743654 11.56704851 22.74440348 5.375 20.75 C1.79191815 19.40246315 -1.62734638 17.81604426 -5 16 C-5 15.34 -5 14.68 -5 14 C-5.66 14 -6.32 14 -7 14 C-9.80858753 10.32723169 -10.59885798 7.5912445 -10 3 C-7.70816174 -1.04442045 -4.23088992 -0.56411866 0 0 Z " fill="#E4E0D3" transform="translate(245,212)"/>
<path d="M0 0 C0.33 0 0.66 0 1 0 C1.90891089 7.72574257 1.90891089 7.72574257 -0.1953125 10.67578125 C-6.10196723 15.70682636 -12.58873102 15.56767167 -20 15 C-25.66199967 13.7558362 -28.85335907 10.67228502 -32 6 C-32 4.68 -32 3.36 -32 2 C-28.37 2 -24.74 2 -21 2 C-20.67 2.99 -20.34 3.98 -20 5 C-16.50795357 6.47740426 -12.7217913 6.26584224 -9 6 C-6.71515694 4.60042803 -6.71515694 4.60042803 -5 3 C-4.34 3 -3.68 3 -3 3 C-2.67 2.34 -2.34 1.68 -2 1 C-1.67 1.33 -1.34 1.66 -1 2 C-0.67 1.34 -0.34 0.68 0 0 Z " fill="#F3F0E2" transform="translate(276,376)"/>
<path d="M0 0 C3.1875 0.3125 3.1875 0.3125 5.4375 1.9375 C9.10181059 6.91049294 9.92504034 12.24197563 9.1875 18.3125 C8.22447437 22.24192573 7.05031315 25.36340553 4.3125 28.375 C2.1875 29.3125 2.1875 29.3125 -0.4375 29.25 C-2.8125 28.3125 -2.8125 28.3125 -4.25 26.5625 C-5.01409734 23.50611064 -4.01741378 22.22965968 -2.8125 19.3125 C-1.70756478 12.7469384 -1.70756478 12.7469384 -2.8125 6.3125 C-3.4375 3.6875 -3.4375 3.6875 -3.8125 1.3125 C-2.8125 0.3125 -2.8125 0.3125 0 0 Z " fill="#EAE7D9" transform="translate(148.8125,356.6875)"/>
<path d="M0 0 C1.3096875 -0.00515625 2.619375 -0.0103125 3.96875 -0.015625 C7.15242072 0.22385466 8.86102529 0.55351625 11.5 2.25 C11.5 2.91 11.5 3.57 11.5 4.25 C12.16 4.25 12.82 4.25 13.5 4.25 C15.26462683 7.33809695 15.5 8.48312136 15.5 12.25 C13.87536158 12.30395478 12.25021459 12.34277195 10.625 12.375 C9.26761719 12.40980469 9.26761719 12.40980469 7.8828125 12.4453125 C5.5 12.25 5.5 12.25 3.5 10.25 C1.28927023 10.00746187 1.28927023 10.00746187 -1.125 10.125 C-2.35089844 10.15207031 -2.35089844 10.15207031 -3.6015625 10.1796875 C-4.54128906 10.21449219 -4.54128906 10.21449219 -5.5 10.25 C-5.83 11.24 -6.16 12.23 -6.5 13.25 C-6.83 11.27 -7.16 9.29 -7.5 7.25 C-8.923125 7.9615625 -8.923125 7.9615625 -10.375 8.6875 C-12.08333333 9.54166667 -13.79166667 10.39583333 -15.5 11.25 C-14.625 6.5 -14.625 6.5 -13.5 4.25 C-12.84 4.25 -12.18 4.25 -11.5 4.25 C-11.5 3.59 -11.5 2.93 -11.5 2.25 C-7.75380451 -0.15826853 -4.37270385 -0.01721537 0 0 Z " fill="#A0A29E" transform="translate(261.5,349.75)"/>
<path d="M0 0 C3.96 0 7.92 0 12 0 C12.01981934 0.83772949 12.03963867 1.67545898 12.06005859 2.53857422 C12.13810612 5.64365834 12.22479635 8.74834539 12.31738281 11.85302734 C12.37454036 13.85886971 12.42168596 15.86498918 12.46875 17.87109375 C12.50742188 19.12792969 12.54609375 20.38476562 12.5859375 21.6796875 C12.6173584 22.84226074 12.6487793 24.00483398 12.68115234 25.20263672 C12.72157869 28.13656482 12.72157869 28.13656482 15 30 C18.58343976 30.16677282 18.58343976 30.16677282 22 30 C23.32 27.36 24.64 24.72 26 22 C26.33 22 26.66 22 27 22 C27.36622304 28.46994034 27.36622304 28.46994034 25.8125 30.71875 C23.37282766 32.44334597 21.76872728 32.30267769 18.8125 32.1875 C17.91144531 32.16042969 17.01039063 32.13335937 16.08203125 32.10546875 C15.39496094 32.07066406 14.70789063 32.03585937 14 32 C13.67 34.31 13.34 36.62 13 39 C15.31 39.33 17.62 39.66 20 40 C17 42 17 42 13.625 41.75 C5.74666667 40.12 5.74666667 40.12 3 36 C5.97 35.505 5.97 35.505 9 35 C8.01 34.01 7.02 33.02 6 32 C7.375 30 7.375 30 9 28 C9.66 28 10.32 28 11 28 C11 19.09 11 10.18 11 1 C7.7 1 4.4 1 1 1 C1 11.23 1 21.46 1 32 C0.67 32 0.34 32 0 32 C0 21.44 0 10.88 0 0 Z " fill="#949692" transform="translate(203,350)"/>
<path d="M0 0 C0.66 0.33 1.32 0.66 2 1 C1.67 1.928125 1.34 2.85625 1 3.8125 C-0.14967004 6.92029291 -0.14967004 6.92029291 0 10 C-1.375 11.6875 -1.375 11.6875 -3 13 C-3.66 13 -4.32 13 -5 13 C-5 13.66 -5 14.32 -5 15 C-4.01 15.33 -3.02 15.66 -2 16 C-4.6382507 18.6382507 -6.31834571 18.60351415 -10 19 C-12.2729669 18.96599704 -14.54591377 18.86105575 -16.8125 18.6875 C-17.95332031 18.60886719 -19.09414062 18.53023437 -20.26953125 18.44921875 C-21.17058594 18.30097656 -22.07164062 18.15273437 -23 18 C-23.33 17.34 -23.66 16.68 -24 16 C-23.195625 15.21625 -22.39125 14.4325 -21.5625 13.625 C-19.01309583 11.28017144 -19.01309583 11.28017144 -18 9 C-17.34 9 -16.68 9 -16 9 C-16 8.34 -16 7.68 -16 7 C-13 7 -13 7 -11.3125 8.5 C-10.879375 8.995 -10.44625 9.49 -10 10 C-10.33 8.68 -10.66 7.36 -11 6 C-9.02 5.34 -7.04 4.68 -5 4 C-5.33 5.32 -5.66 6.64 -6 8 C-5.01 8 -4.02 8 -3 8 C-3.061875 7.236875 -3.12375 6.47375 -3.1875 5.6875 C-3 3 -3 3 -1.5 1.1875 C-1.005 0.795625 -0.51 0.40375 0 0 Z " fill="#FCF7E7" transform="translate(271,213)"/>
<path d="M0 0 C4.65647576 2.75155386 7.2725704 5.17454764 10 10 C10 10.66 10 11.32 10 12 C10.66 12 11.32 12 12 12 C12.66 13.32 13.32 14.64 14 16 C9.05 16 4.1 16 -1 16 C-0.67 14.35 -0.34 12.7 0 11 C-1.32 10.67 -2.64 10.34 -4 10 C-4.33 8.35 -4.66 6.7 -5 5 C-4.360625 4.731875 -3.72125 4.46375 -3.0625 4.1875 C-0.66868314 3.11332248 -0.66868314 3.11332248 0 0 Z " fill="#FBF7E8" transform="translate(410,374)"/>
<path d="M0 0 C0.66 0.33 1.32 0.66 2 1 C2.08160748 2.89510699 2.13946459 4.79124504 2.1875 6.6875 C2.22230469 7.74324219 2.25710937 8.79898437 2.29296875 9.88671875 C1.96262058 13.39721859 1.15721846 15.23224801 -1 18 C-3.6875 18.3125 -3.6875 18.3125 -6 18 C-6.33 18.66 -6.66 19.32 -7 20 C-7.23918379 18.35988257 -7.4768345 16.71952792 -7.70703125 15.078125 C-7.90542923 13.67082198 -8.11138845 12.2645678 -8.32421875 10.859375 C-8.80441776 7.49174557 -9.09055605 5.27166814 -8 2 C-5.625 1.375 -5.625 1.375 -3 1 C-2.34 1.66 -1.68 2.32 -1 3 C-0.67 2.01 -0.34 1.02 0 0 Z " fill="#F3F0E1" transform="translate(170,362)"/>
<path d="M0 0 C-0.99 0.495 -0.99 0.495 -2 1 C-2 2.32 -2 3.64 -2 5 C-1.01 5.33 -0.02 5.66 1 6 C0.34 7.98 -0.32 9.96 -1 12 C-1.99 12 -2.98 12 -4 12 C-4 11.01 -4 10.02 -4 9 C-4.66 10.32 -5.32 11.64 -6 13 C-9.63 13 -13.26 13 -17 13 C-17.66 11.35 -18.32 9.7 -19 8 C-17.68 8.33 -16.36 8.66 -15 9 C-15.33 8.01 -15.66 7.02 -16 6 C-14.35 6.33 -12.7 6.66 -11 7 C-10.3185177 5.10820797 -10.3185177 5.10820797 -10 3 C-10.66 2.34 -11.32 1.68 -12 1 C-3.96428571 -1.27678571 -3.96428571 -1.27678571 0 0 Z " fill="#FCF8E8" transform="translate(238,249)"/>
<path d="M0 0 C1.9375 1.625 1.9375 1.625 3 4 C2.9375 7.625 2.9375 7.625 2 11 C0.3125 12.5 0.3125 12.5 -2 13 C-7.43478261 12.56521739 -7.43478261 12.56521739 -10 10 C-10.67973856 2.8627451 -10.67973856 2.8627451 -8.375 -0.0625 C-5.12721302 -1.34452118 -3.30703161 -1.05543562 0 0 Z " fill="#E8E6D9" transform="translate(332,335)"/>
<path d="M0 0 C2 3 2 3 2.5 6.625 C2.7475 8.295625 2.7475 8.295625 3 10 C3.66 10.33 4.32 10.66 5 11 C4.01 11 3.02 11 2 11 C2 12.32 2 13.64 2 15 C2.66 15.33 3.32 15.66 4 16 C1.0377738 20.4433393 -3.19531495 21.39050131 -8.2109375 22.48046875 C-13.64290942 23.29049965 -18.82743707 22.9743488 -24 21 C-24.33 20.34 -24.66 19.68 -25 19 C-24.34 18.34 -23.68 17.68 -23 17 C-21.68 17.66 -20.36 18.32 -19 19 C-19 19.66 -19 20.32 -19 21 C-15.37 20.67 -11.74 20.34 -8 20 C-8 19.01 -8 18.02 -8 17 C-7.34 17 -6.68 17 -6 17 C-6 17.99 -6 18.98 -6 20 C-5.01 20 -4.02 20 -3 20 C-2.67 18.02 -2.34 16.04 -2 14 C-2.66 13.67 -3.32 13.34 -4 13 C-3.67 11.35 -3.34 9.7 -3 8 C-3.99 7.34 -4.98 6.68 -6 6 C-4.02 4.02 -2.04 2.04 0 0 Z " fill="#F1EDDD" transform="translate(240,241)"/>
<path d="M0 0 C15.77325435 -1.03368414 15.77325435 -1.03368414 21 3 C22.8125 4.6875 22.8125 4.6875 24 6 C23.67 6.66 23.34 7.32 23 8 C21.02 8 19.04 8 17 8 C17.48484276 12.64586892 17.48484276 12.64586892 19 17 C18.34 17.66 17.68 18.32 17 19 C16.690625 18.071875 16.38125 17.14375 16.0625 16.1875 C13.2030293 11.76831801 9.95272438 11.18366998 5 10 C6.32 9.34 7.64 8.68 9 8 C7.68 7.34 6.36 6.68 5 6 C5.66 4.68 6.32 3.36 7 2 C9.05078125 2.29296875 11.1015625 2.5859375 13.15234375 2.87890625 C14.06693359 2.93884766 14.06693359 2.93884766 15 3 C15.33 2.67 15.66 2.34 16 2 C10.72 1.67 5.44 1.34 0 1 C0 0.67 0 0.34 0 0 Z " fill="#DEDBCE" transform="translate(129,350)"/>
<path d="M0 0 C3.63 0 7.26 0 11 0 C11.33 9.9 11.66 19.8 12 30 C12.66 29.67 13.32 29.34 14 29 C13.68289063 30.1240625 13.36578125 31.248125 13.0390625 32.40625 C11.86570187 37.09969251 11.56340828 41.67988822 11.375 46.5 C11.33632813 47.32242188 11.29765625 48.14484375 11.2578125 48.9921875 C11.16468308 50.9944701 11.08131015 52.99720262 11 55 C7.37 55 3.74 55 0 55 C0 36.85 0 18.7 0 0 Z M1 1 C1 18.49 1 35.98 1 54 C3.97 54 6.94 54 10 54 C11.29717458 36.27859959 10.73294344 18.7285889 10 1 C7.03 1 4.06 1 1 1 Z " fill="#A3A6A5" transform="translate(385,335)"/>
<path d="M0 0 C1.67542976 0.28604898 3.34385343 0.61781233 5 1 C5 1.66 5 2.32 5 3 C5.66 3 6.32 3 7 3 C8.84753138 6.11770921 9.54282688 8.38115411 9 12 C7.375 14.3125 7.375 14.3125 5 16 C1.75 16.25 1.75 16.25 -1 16 C-1.80628648 10.65835207 -2.25024757 6.27882308 -1 1 C-0.67 0.67 -0.34 0.34 0 0 Z " fill="#EAE7D9" transform="translate(255,196)"/>
<path d="M0 0 C3.63 0 7.26 0 11 0 C11.33 0.99 11.66 1.98 12 3 C14.00016466 4.20882096 14.00016466 4.20882096 16 5 C14.02 5.99 14.02 5.99 12 7 C12.33 8.65 12.66 10.3 13 12 C16.3 12 19.6 12 23 12 C23 12.33 23 12.66 23 13 C16.25813232 13.32916895 10.88399102 13.53039461 5 10 C2.90312632 8.09520636 1.61448197 6.39726111 0 4 C0 2.68 0 1.36 0 0 Z " fill="#D4D4CB" transform="translate(244,378)"/>
<path d="M0 0 C0.68707555 2.49064888 1 4.37886292 1 7 C0.01 8.485 0.01 8.485 -1 10 C1.81509993 12.2773501 1.81509993 12.2773501 5 12 C4.9375 13.8125 4.9375 13.8125 4 16 C0.47049435 17.96837815 -1.87288134 19.11990624 -5.9375 18.6875 C-6.9584375 18.3471875 -6.9584375 18.3471875 -8 18 C-7.25 12.25 -7.25 12.25 -5 10 C-5.60328125 10.01160156 -6.2065625 10.02320313 -6.828125 10.03515625 C-8.02695313 10.04869141 -8.02695313 10.04869141 -9.25 10.0625 C-10.43335938 10.07990234 -10.43335938 10.07990234 -11.640625 10.09765625 C-13.96858185 10.00130042 -15.81708062 9.81626259 -18 9 C-20 6 -20 6 -20 3 C-17 4 -17 4 -15.25 6.0625 C-13.04558063 8.32221916 -13.04558063 8.32221916 -9.5 8.4375 C-5.84537493 7.98067187 -4.47724165 7.66074103 -2 5 C-0.73152315 2.41501488 -0.73152315 2.41501488 0 0 Z " fill="#D8D6CC" transform="translate(146,372)"/>
<path d="M0 0 C0.66 0.66 1.32 1.32 2 2 C1.1875 5.4375 1.1875 5.4375 0 9 C-0.99 9.33 -1.98 9.66 -3 10 C-3.73323796 12.01508358 -3.73323796 12.01508358 -4 14 C-4.66 13.67 -5.32 13.34 -6 13 C-8.78918149 11.89459074 -8.78918149 11.89459074 -11 12 C-11.146263 16.24162699 -11.24641598 19.27444184 -9.875 23.3125 C-9.441875 24.6428125 -9.441875 24.6428125 -9 26 C-9.66 26.99 -10.32 27.98 -11 29 C-12.66227326 25.35883 -13.2724556 22.49709631 -13.25 18.5 C-13.25515625 17.5821875 -13.2603125 16.664375 -13.265625 15.71875 C-12.98262598 12.8221718 -12.20350245 10.63624347 -11 8 C-10.34 8 -9.68 8 -9 8 C-8.731875 7.21625 -8.46375 6.4325 -8.1875 5.625 C-7 3 -7 3 -4 1 C-1.9375 0.25 -1.9375 0.25 0 0 Z " fill="#F1EDDB" transform="translate(173,352)"/>
<path d="M0 0 C0.845625 0.11601562 1.69125 0.23203125 2.5625 0.3515625 C2.5625 1.3415625 2.5625 2.3315625 2.5625 3.3515625 C1.9025 3.3515625 1.2425 3.3515625 0.5625 3.3515625 C0.5625 4.0115625 0.5625 4.6715625 0.5625 5.3515625 C-0.0975 5.3515625 -0.7575 5.3515625 -1.4375 5.3515625 C-2.0975 6.6715625 -2.7575 7.9915625 -3.4375 9.3515625 C-4.4275 9.3515625 -5.4175 9.3515625 -6.4375 9.3515625 C-6.7675 8.6915625 -7.0975 8.0315625 -7.4375 7.3515625 C-10.62240007 7.0742124 -10.62240007 7.0742124 -13.4375 9.3515625 C-13.72625 10.0321875 -14.015 10.7128125 -14.3125 11.4140625 C-15.4375 13.3515625 -15.4375 13.3515625 -18.0625 14.1015625 C-18.84625 14.1840625 -19.63 14.2665625 -20.4375 14.3515625 C-15.66791979 4.29550176 -11.6842169 -0.92942634 0 0 Z " fill="#F8F5EB" transform="translate(419.4375,349.6484375)"/>
<path d="M0 0 C2.31 0 4.62 0 7 0 C7.33 1.65 7.66 3.3 8 5 C9.98 4.67 11.96 4.34 14 4 C18 10.75 18 10.75 18 13 C15.36 13 12.72 13 10 13 C9.67 12.01 9.34 11.02 9 10 C8.34 10 7.68 10 7 10 C7 9.01 7 8.02 7 7 C4.03 6.505 4.03 6.505 1 6 C0 3 0 3 0 0 Z " fill="#F1EDE0" transform="translate(181,351)"/>
<path d="M0 0 C0.68126953 -0.00386719 1.36253906 -0.00773437 2.06445312 -0.01171875 C5.16898046 -0.0056374 7.59579065 0.13609688 10.5625 1.125 C10.2325 1.785 9.9025 2.445 9.5625 3.125 C7.2525 2.795 4.9425 2.465 2.5625 2.125 C1.5725 3.61 1.5725 3.61 0.5625 5.125 C1.8825 5.785 3.2025 6.445 4.5625 7.125 C0.59552114 8.92817221 -3.1197542 9.61702991 -7.4375 10.125 C-7.7675 8.805 -8.0975 7.485 -8.4375 6.125 C-9.4275 6.125 -10.4175 6.125 -11.4375 6.125 C-11.4375 5.465 -11.4375 4.805 -11.4375 4.125 C-10.7775 4.125 -10.1175 4.125 -9.4375 4.125 C-9.4375 3.135 -9.4375 2.145 -9.4375 1.125 C-6.41872735 -0.38438632 -3.30670415 -0.01866437 0 0 Z " fill="#F5F3E5" transform="translate(134.4375,350.875)"/>
<path d="M0 0 C3.96 0 7.92 0 12 0 C11.01 1.485 11.01 1.485 10 3 C9.34 3 8.68 3 8 3 C8 3.66 8 4.32 8 5 C8.99 4.67 9.98 4.34 11 4 C11.33 5.65 11.66 7.3 12 9 C8.7 9 5.4 9 2 9 C1.67 9.99 1.34 10.98 1 12 C0.67 12 0.34 12 0 12 C0 8.04 0 4.08 0 0 Z " fill="#F36878" transform="translate(324,213)"/>
<path d="M0 0 C0.33 0.66 0.66 1.32 1 2 C1.99 1.67 2.98 1.34 4 1 C4.99 0.67 5.98 0.34 7 0 C6.14590173 4.50419983 3.52252531 7.03017333 0.4375 10.25 C-0.08263672 10.80429688 -0.60277344 11.35859375 -1.13867188 11.9296875 C-2.41930985 13.29256828 -3.7088049 14.64711683 -5 16 C-5.33 15.34 -5.66 14.68 -6 14 C-5.67 13.01 -5.34 12.02 -5 11 C-5.99 10.67 -6.98 10.34 -8 10 C-7.43224464 8.70141061 -6.84508337 7.41129559 -6.25 6.125 C-5.92515625 5.40570313 -5.6003125 4.68640625 -5.265625 3.9453125 C-3.78070314 1.6629326 -2.49584592 0.99624102 0 0 Z " fill="#DAD8CC" transform="translate(290,202)"/>
<path d="M0 0 C0.78375 0.04125 1.5675 0.0825 2.375 0.125 C3.375 3.125 3.375 3.125 3.375 6.125 C2.735625 6.24875 2.09625 6.3725 1.4375 6.5 C0.756875 6.70625 0.07625 6.9125 -0.625 7.125 C-0.955 7.785 -1.285 8.445 -1.625 9.125 C-3.6875 9.75 -3.6875 9.75 -5.625 10.125 C-5.728125 10.723125 -5.83125 11.32125 -5.9375 11.9375 C-6.72201691 14.43369017 -7.72389308 15.38231865 -9.625 17.125 C-9.955 17.785 -10.285 18.445 -10.625 19.125 C-11.285 18.465 -11.945 17.805 -12.625 17.125 C-12.46254442 13.38852155 -12.03716356 11.59961258 -9.5625 8.75 C-8.923125 8.21375 -8.28375 7.6775 -7.625 7.125 C-6.965 7.455 -6.305 7.785 -5.625 8.125 C-5.439375 6.701875 -5.439375 6.701875 -5.25 5.25 C-4.48692817 1.43464086 -4.00350056 0.19064288 0 0 Z " fill="#FCF8E6" transform="translate(409.625,354.875)"/>
<path d="M0 0 C1.1859375 0.00257813 2.371875 0.00515625 3.59375 0.0078125 C4.7796875 0.00523437 5.965625 0.00265625 7.1875 0 C10.09375 0.1328125 10.09375 0.1328125 11.09375 1.1328125 C11.13455783 3.13239614 11.13629356 5.13326504 11.09375 7.1328125 C6.98200414 8.50339445 4.35714405 7.88922112 0.09375 7.1328125 C-0.23625 6.4728125 -0.56625 5.8128125 -0.90625 5.1328125 C-1.56625 5.1328125 -2.22625 5.1328125 -2.90625 5.1328125 C-3.46875 3.1953125 -3.46875 3.1953125 -3.90625 1.1328125 C-2.90625 0.1328125 -2.90625 0.1328125 0 0 Z " fill="#FBF8EA" transform="translate(257.90625,350.8671875)"/>
<path d="M0 0 C0.33 0 0.66 0 1 0 C1 3.96 1 7.92 1 12 C2.588125 11.979375 4.17625 11.95875 5.8125 11.9375 C11.58823193 11.92999905 17.26143069 12.37841416 23 13 C23 10.03 23 7.06 23 4 C23.33 4 23.66 4 24 4 C24 11.26 24 18.52 24 26 C23.67 26 23.34 26 23 26 C23 22.04 23 18.08 23 14 C15.41 14 7.82 14 0 14 C0 16.97 0 19.94 0 23 C-0.33 23 -0.66 23 -1 23 C-1.02887512 19.35418313 -1.04675585 15.70839537 -1.0625 12.0625 C-1.07087891 11.02158203 -1.07925781 9.98066406 -1.08789062 8.90820312 C-1.09272461 7.42416992 -1.09272461 7.42416992 -1.09765625 5.91015625 C-1.10289307 4.99371338 -1.10812988 4.07727051 -1.11352539 3.13305664 C-1 1 -1 1 0 0 Z " fill="#5E4B90" transform="translate(323,198)"/>
<path d="M0 0 C8.90763766 -0.45293073 8.90763766 -0.45293073 13 3 C13 3.99 13 4.98 13 6 C9.35602463 8.33214424 6.24674388 8.23164058 2 8 C1.01 7.67 0.02 7.34 -1 7 C-1.33 6.01 -1.66 5.02 -2 4 C-1.34 4 -0.68 4 0 4 C0 2.68 0 1.36 0 0 Z " fill="#F0EDDE" transform="translate(217,382)"/>
<path d="M0 0 C0.45375 1.11375 0.9075 2.2275 1.375 3.375 C2.72465986 6.96199008 2.72465986 6.96199008 5 9 C0.58774263 10.47075246 -2.48281619 11.36884358 -7 10 C-7.33 8.02 -7.66 6.04 -8 4 C-3.375 0 -3.375 0 0 0 Z " fill="#F9F5E7" transform="translate(254,357)"/>
<path d="M0 0 C7.75 -0.125 7.75 -0.125 10 1 C9.625 3.9375 9.625 3.9375 9 7 C8.01 7.495 8.01 7.495 7 8 C6.4375 6.0625 6.4375 6.0625 6 4 C6.33 3.67 6.66 3.34 7 3 C4.69 2.67 2.38 2.34 0 2 C0.99 3.485 0.99 3.485 2 5 C2.99 4.34 3.98 3.68 5 3 C4.75 4.875 4.75 4.875 4 7 C1.9375 8.25 1.9375 8.25 0 9 C0 8.34 0 7.68 0 7 C-1.65 7.66 -3.3 8.32 -5 9 C-5.33 8.34 -5.66 7.68 -6 7 C-7.98 7 -9.96 7 -12 7 C-12.33 6.01 -12.66 5.02 -13 4 C-11.14375 4.0309375 -11.14375 4.0309375 -9.25 4.0625 C-5.02413874 4.114392 -5.02413874 4.114392 -1 3 C-0.67 2.01 -0.34 1.02 0 0 Z " fill="#CAC7BE" transform="translate(189,376)"/>
<path d="M0 0 C2.00720923 0.28674418 4.0085944 0.61866701 6 1 C0.86761899 6.13238101 -10.6792159 5.13662039 -17.5625 5.1875 C-21.52446344 5.16459848 -25.13870188 4.89881241 -29 4 C-25.61006115 1.74004077 -24.26100068 1.71854245 -20.2734375 1.62109375 C-19.1596875 1.58693359 -18.0459375 1.55277344 -16.8984375 1.51757812 C-15.73570312 1.49115234 -14.57296875 1.46472656 -13.375 1.4375 C-11.07020131 1.37784937 -8.76549981 1.31426816 -6.4609375 1.24609375 C-5.43790527 1.22216553 -4.41487305 1.1982373 -3.36083984 1.17358398 C-1.04391098 1.26169502 -1.04391098 1.26169502 0 0 Z " fill="#AF5A68" transform="translate(267,305)"/>
<path d="M0 0 C3.96 0 7.92 0 12 0 C12 0.66 12 1.32 12 2 C10.35 2 8.7 2 7 2 C6.773125 2.598125 6.54625 3.19625 6.3125 3.8125 C4.64390958 6.59348403 2.8716168 7.5641916 0 9 C-0.66 9 -1.32 9 -2 9 C-2.66 6.69 -3.32 4.38 -4 2 C-3.01 2 -2.02 2 -1 2 C-0.67 1.34 -0.34 0.68 0 0 Z " fill="#FAF8E9" transform="translate(358,351)"/>
<path d="M0 0 C2.475 0.495 2.475 0.495 5 1 C5 2.65 5 4.3 5 6 C4.34 6 3.68 6 3 6 C3 10.62 3 15.24 3 20 C3.66 20 4.32 20 5 20 C4.67 22.31 4.34 24.62 4 27 C-0.52178043 18.79239855 -0.28657512 9.12264124 0 0 Z " fill="#D8697B" transform="translate(153,212)"/>
<path d="M0 0 C0.33 0 0.66 0 1 0 C1.268125 1.216875 1.53625 2.43375 1.8125 3.6875 C2.68494361 7.22121044 3.92156939 9.9768282 6 13 C5.01 12.67 4.02 12.34 3 12 C2.67 13.98 2.34 15.96 2 18 C1.34 18 0.68 18 0 18 C0.33 18.99 0.66 19.98 1 21 C0.01 21 -0.98 21 -2 21 C-2.33 21.99 -2.66 22.98 -3 24 C-3.66 24 -4.32 24 -5 24 C-5 23.34 -5 22.68 -5 22 C-5.66 22 -6.32 22 -7 22 C-7 21.34 -7 20.68 -7 20 C-7.66 20 -8.32 20 -9 20 C-9 19.01 -9 18.02 -9 17 C-8.01 17.33 -7.02 17.66 -6 18 C-6 18.99 -6 19.98 -6 21 C-5.34 21 -4.68 21 -4 21 C-4 20.01 -4 19.02 -4 18 C-2.625 16.3125 -2.625 16.3125 -1 15 C-0.34 15 0.32 15 1 15 C0.835 14.195625 0.67 13.39125 0.5 12.5625 C-0.09247348 8.34112648 -0.08506709 4.25335455 0 0 Z " fill="#BAB9B2" transform="translate(212,232)"/>
<path d="M0 0 C1.32 0 2.64 0 4 0 C4.33 1.32 4.66 2.64 5 4 C6.32 3.67 7.64 3.34 9 3 C8.67 3.99 8.34 4.98 8 6 C9.65 6 11.3 6 13 6 C13 6.33 13 6.66 13 7 C10.69 7.33 8.38 7.66 6 8 C5.67 8.99 5.34 9.98 5 11 C4.67 9.02 4.34 7.04 4 5 C2.576875 5.7115625 2.576875 5.7115625 1.125 6.4375 C-0.58333333 7.29166667 -2.29166667 8.14583333 -4 9 C-3.125 4.25 -3.125 4.25 -2 2 C-1.34 2 -0.68 2 0 2 C0 1.34 0 0.68 0 0 Z " fill="#C2C0B9" transform="translate(250,352)"/>
<path d="M0 0 C4.875 2.75 4.875 2.75 6 5 C6.42795959 8.85163628 6.40106831 10.45661712 4.0625 13.625 C3.381875 14.40875 2.70125 15.1925 2 16 C1.22166466 18.18214568 1.22166466 18.18214568 1 20 C1.66 20 2.32 20 3 20 C2.67 20.66 2.34 21.32 2 22 C1.34 21.67 0.68 21.34 0 21 C0 18.36 0 15.72 0 13 C0.66 13 1.32 13 2 13 C1.85851011 11.3954444 1.71164314 9.79136233 1.5625 8.1875 C1.48128906 7.29417969 1.40007812 6.40085937 1.31640625 5.48046875 C1.06510233 2.87256441 1.06510233 2.87256441 0 0 Z " fill="#6266C6" transform="translate(315,121)"/>
<path d="M0 0 C2.4975153 0.36805489 3.67989452 0.60587614 5.30078125 2.6015625 C7.72073381 7.44146761 8.69533816 10.61480819 7 16 C5.10976968 19.10837875 3.1830456 21.55236112 -0.3125 22.875 C-0.869375 22.91625 -1.42625 22.9575 -2 23 C-2 22.34 -2 21.68 -2 21 C-1.01 21 -0.02 21 1 21 C2.07525194 18.34771188 3.09456151 15.71631546 4 13 C4.66 13 5.32 13 6 13 C6 11.02 6 9.04 6 7 C5.34 7 4.68 7 4 7 C4 6.34 4 5.68 4 5 C3.34 5 2.68 5 2 5 C1.34 3.35 0.68 1.7 0 0 Z " fill="#5D62B5" transform="translate(267,83)"/>
<path d="M0 0 C0.6875 1.75 0.6875 1.75 1 4 C-0.4375 6.125 -0.4375 6.125 -2 8 C-2 8.66 -2 9.32 -2 10 C-3.875 10.625 -3.875 10.625 -6 11 C-8 9 -8 9 -8.125 5.375 C-8.08375 4.26125 -8.0425 3.1475 -8 2 C-2.25 0 -2.25 0 0 0 Z " fill="#FAF7E5" transform="translate(249,239)"/>
<path d="M0 0 C3 1 3 1 4.1875 3.0625 C4.455625 3.701875 4.72375 4.34125 5 5 C3.35 5 1.7 5 0 5 C-0.59732819 7.76264289 -1 10.16032769 -1 13 C-3.46800047 11.84826645 -5.04783565 10.95216435 -7 9 C-7 7.68 -7 6.36 -7 5 C-5.824375 4.87625 -5.824375 4.87625 -4.625 4.75 C-1.85250896 4.27193661 -1.85250896 4.27193661 -0.6875 1.9375 C-0.460625 1.298125 -0.23375 0.65875 0 0 Z " fill="#D1CFC6" transform="translate(171,375)"/>
<path d="M0 0 C1.37478516 0.01740234 1.37478516 0.01740234 2.77734375 0.03515625 C3.69644531 0.04417969 4.61554688 0.05320313 5.5625 0.0625 C6.27277344 0.07410156 6.98304688 0.08570313 7.71484375 0.09765625 C8.04484375 0.75765625 8.37484375 1.41765625 8.71484375 2.09765625 C8.38484375 2.75765625 8.05484375 3.41765625 7.71484375 4.09765625 C7.05484375 4.24203125 6.39484375 4.38640625 5.71484375 4.53515625 C5.05484375 4.72078125 4.39484375 4.90640625 3.71484375 5.09765625 C3.38484375 6.08765625 3.05484375 7.07765625 2.71484375 8.09765625 C-0.28515625 7.09765625 -0.28515625 7.09765625 -2.28515625 5.09765625 C-2.97265625 3.03515625 -2.97265625 3.03515625 -3.28515625 1.09765625 C-2.28515625 0.09765625 -2.28515625 0.09765625 0 0 Z " fill="#FAF7E9" transform="translate(253.28515625,236.90234375)"/>
<path d="M0 0 C0.99 0.33 1.98 0.66 3 1 C3 1.66 3 2.32 3 3 C2.34 3 1.68 3 1 3 C1 3.66 1 4.32 1 5 C0.34 5 -0.32 5 -1 5 C-1 5.66 -1 6.32 -1 7 C-2.96466413 8.06775224 -4.96855359 9.06553465 -7 10 C-7.66 9.67 -8.32 9.34 -9 9 C-8.67 8.67 -8.34 8.34 -8 8 C-8.66 7.67 -9.32 7.34 -10 7 C-10 6.34 -10 5.68 -10 5 C-9.34 5 -8.68 5 -8 5 C-7.67 4.01 -7.34 3.02 -7 2 C-6.01 2 -5.02 2 -4 2 C-4 2.66 -4 3.32 -4 4 C-3.01 3.67 -2.02 3.34 -1 3 C-1.33 2.34 -1.66 1.68 -2 1 C-1.34 0.67 -0.68 0.34 0 0 Z " fill="#D3D1C8" transform="translate(276,221)"/>
<path d="M0 0 C-2 3 -2 3 -3.7890625 3.67578125 C-10.32575934 4.6343428 -16.8705813 4.65055944 -23 2 C-22.34 1.67 -21.68 1.34 -21 1 C-20.34 1.33 -19.68 1.66 -19 2 C-18.67 1.34 -18.34 0.68 -18 0 C-17.34 0.66 -16.68 1.32 -16 2 C-13.42938689 2.64767793 -13.42938689 2.64767793 -11 3 C-11 2.34 -11 1.68 -11 1 C-6.8204355 -1.78637633 -4.85331323 -0.79562512 0 0 Z " fill="#C1C0BA" transform="translate(193,387)"/>
<path d="M0 0 C3.39417765 3.12621626 5.6062718 5.56541027 7 10 C7.66 10 8.32 10 9 10 C9.66 11.32 10.32 12.64 11 14 C6.05 14 1.1 14 -4 14 C-4 13.67 -4 13.34 -4 13 C-1.03 13 1.94 13 5 13 C5 11.68 5 10.36 5 9 C4.360625 8.814375 3.72125 8.62875 3.0625 8.4375 C1 7 1 7 0.25 3.375 C0.12625 1.704375 0.12625 1.704375 0 0 Z " fill="#C2C4C5" transform="translate(413,376)"/>
<path d="M0 0 C5.28 0.33 10.56 0.66 16 1 C14 3 14 3 11 5 C9.80767387 7.05003955 9.80767387 7.05003955 9 9 C8.01 9 7.02 9 6 9 C5.566875 8.071875 5.13375 7.14375 4.6875 6.1875 C3.09419937 2.80011352 3.09419937 2.80011352 0 0 Z " fill="#D7D4CB" transform="translate(218,247)"/>
<path d="M0 0 C-0.33 0.99 -0.66 1.98 -1 3 C-1.99 3.33 -2.98 3.66 -4 4 C-4.33 4.66 -4.66 5.32 -5 6 C-5.66 6 -6.32 6 -7 6 C-7.06058594 6.60328125 -7.12117187 7.2065625 -7.18359375 7.828125 C-7.30927734 9.02695313 -7.30927734 9.02695313 -7.4375 10.25 C-7.51871094 11.03890625 -7.59992188 11.8278125 -7.68359375 12.640625 C-7.97634993 14.82364639 -8.42064419 16.8773182 -9 19 C-11.11626861 15.5610635 -11.47116864 13.0049334 -11 9 C-9.61557289 5.58174957 -8.02297813 2.71298476 -4.9375 0.5625 C-3 0 -3 0 0 0 Z " fill="#4F55A3" transform="translate(236,82)"/>
<path d="M0 0 C-1.98 0.99 -1.98 0.99 -4 2 C-4 2.66 -4 3.32 -4 4 C-3.34 4.33 -2.68 4.66 -2 5 C-2.66 5.66 -3.32 6.32 -4 7 C-4 7.66 -4 8.32 -4 9 C-5.98 9 -7.96 9 -10 9 C-9.34 8.34 -8.68 7.68 -8 7 C-8.66 5.68 -9.32 4.36 -10 3 C-8 0 -8 0 -5 -0.75 C-2 -1 -2 -1 0 0 Z " fill="#FBF8EA" transform="translate(143,382)"/>
<path d="M0 0 C2.31 0 4.62 0 7 0 C8.0326802 2.78823655 8.04509293 3.8677274 7.0625 6.75 C6.711875 7.4925 6.36125 8.235 6 9 C3.36 8.67 0.72 8.34 -2 8 C-1.34 7.01 -0.68 6.02 0 5 C0.99 5 1.98 5 3 5 C3 4.34 3 3.68 3 3 C2.01 3.495 2.01 3.495 1 4 C0.67 2.68 0.34 1.36 0 0 Z " fill="#DFDED4" transform="translate(189,378)"/>
<path d="M0 0 C1 3 1 3 0.25 5.625 C-1 8 -1 8 -4 9 C-4.146263 13.24162699 -4.24641598 16.27444184 -2.875 20.3125 C-2.441875 21.6428125 -2.441875 21.6428125 -2 23 C-2.66 23.99 -3.32 24.98 -4 26 C-5.66227326 22.35883 -6.2724556 19.49709631 -6.25 15.5 C-6.25515625 14.5821875 -6.2603125 13.664375 -6.265625 12.71875 C-5.98262598 9.8221718 -5.20350245 7.63624347 -4 5 C-3.34 5 -2.68 5 -2 5 C-1.34 3.35 -0.68 1.7 0 0 Z " fill="#989998" transform="translate(166,355)"/>
<path d="M0 0 C4.29 0 8.58 0 13 0 C13 0.99 13 1.98 13 3 C12.34 3 11.68 3 11 3 C11 3.66 11 4.32 11 5 C10.34 5 9.68 5 9 5 C8.566875 5.9590625 8.566875 5.9590625 8.125 6.9375 C7 9 7 9 5 10 C4.67 9.01 4.34 8.02 4 7 C4.99 6.01 5.98 5.02 7 4 C6.67 3.34 6.34 2.68 6 2 C2.37114676 1.84850702 2.37114676 1.84850702 -1 3 C-0.67 2.01 -0.34 1.02 0 0 Z " fill="#949696" transform="translate(409,350)"/>
<path d="M0 0 C1.18771723 3.42943519 0.80226223 5.37784675 -0.4375 8.75 C-0.72496094 9.54921875 -1.01242188 10.3484375 -1.30859375 11.171875 C-1.53675781 11.77515625 -1.76492187 12.3784375 -2 13 C-2.66 13 -3.32 13 -4 13 C-4 17.29 -4 21.58 -4 26 C-4.33 26 -4.66 26 -5 26 C-5.95744681 7.46808511 -5.95744681 7.46808511 0 0 Z " fill="#ABADAA" transform="translate(204,217)"/>
<path d="M0 0 C0.33 0.66 0.66 1.32 1 2 C0.34 2 -0.32 2 -1 2 C-1 2.66 -1 3.32 -1 4 C0.32 3.67 1.64 3.34 3 3 C1.65315993 7.04052022 -0.44847477 7.77159201 -4 10 C-5.34175973 10.98866506 -6.67896002 11.9838154 -8 13 C-7.67 11.02 -7.34 9.04 -7 7 C-6.34 7 -5.68 7 -5 7 C-4.731875 6.21625 -4.46375 5.4325 -4.1875 4.625 C-3 2 -3 2 0 0 Z " fill="#C6C6BF" transform="translate(124,353)"/>
<path d="M0 0 C3.3 0.33 6.6 0.66 10 1 C10.33 2.32 10.66 3.64 11 5 C10.2575 4.95875 9.515 4.9175 8.75 4.875 C6.01480713 4.81279555 6.01480713 4.81279555 3.875 6.0625 C2 7 2 7 -1 6 C-0.67 5.01 -0.34 4.02 0 3 C0.99 2.67 1.98 2.34 3 2 C2.01 1.34 1.02 0.68 0 0 Z " fill="#D4D6C8" transform="translate(268,160)"/>
<path d="M0 0 C2 6.625 2 6.625 2 10 C2.99 10.33 3.98 10.66 5 11 C4.67 12.32 4.34 13.64 4 15 C0.74451247 11.97704729 -1.68977058 8.79537691 -4 5 C-4 4.34 -4 3.68 -4 3 C-4.66 3 -5.32 3 -6 3 C-4.60722783 0.21445565 -3.01148006 0 0 0 Z " fill="#BBBBB6" transform="translate(405,374)"/>
<path d="M0 0 C4.75 0.875 4.75 0.875 7 2 C6.30058404 5.14737182 5.23921302 8.02588876 4 11 C0.85041169 7.57653445 0.43820891 4.55737263 0 0 Z " fill="#F9F5E7" transform="translate(264,366)"/>
<path d="M0 0 C2.475 0.99 2.475 0.99 5 2 C5 2.66 5 3.32 5 4 C10.445 3.505 10.445 3.505 16 3 C16 2.01 16 1.02 16 0 C16.66 0 17.32 0 18 0 C18 0.99 18 1.98 18 3 C19.32 3.33 20.64 3.66 22 4 C14.18893167 6.45904003 6.51756148 6.75878074 -1 3 C-0.67 2.01 -0.34 1.02 0 0 Z " fill="#999A97" transform="translate(216,258)"/>
<path d="M0 0 C3.48330216 0.64505596 6.09432866 1.98217268 9 4 C9 4.66 9 5.32 9 6 C12.3 6 15.6 6 19 6 C19 6.33 19 6.66 19 7 C12.31627474 7.32633017 6.8320961 7.54997154 1 4 C0.0625 1.8125 0.0625 1.8125 0 0 Z " fill="#C5C5C1" transform="translate(248,384)"/>
<path d="M0 0 C1.11375 0.556875 1.11375 0.556875 2.25 1.125 C2.25 2.115 2.25 3.105 2.25 4.125 C-0.0625 5.875 -0.0625 5.875 -2.75 7.125 C-3.74 6.795 -4.73 6.465 -5.75 6.125 C-6.08 4.475 -6.41 2.825 -6.75 1.125 C-4.02098495 -0.69434337 -3.21400584 -1.02263822 0 0 Z " fill="#E8E4D5" transform="translate(206.75,241.875)"/>
<path d="M0 0 C0.33 0 0.66 0 1 0 C1 1.98 1 3.96 1 6 C-0.65 6 -2.3 6 -4 6 C-4.33 6.66 -4.66 7.32 -5 8 C-6.64363134 8.72159424 -8.31050386 9.39351421 -10 10 C-10.99 9.01 -11.98 8.02 -13 7 C-10.61766476 5.7172041 -8.40889449 4.81455513 -5.8125 4 C-2.87134522 3.32012508 -2.87134522 3.32012508 -2 1 C-1.67 1.33 -1.34 1.66 -1 2 C-0.67 1.34 -0.34 0.68 0 0 Z " fill="#FAF7E8" transform="translate(276,376)"/>
<path d="M0 0 C0.33 0.66 0.66 1.32 1 2 C1.66 2.33 2.32 2.66 3 3 C2.01 3.495 2.01 3.495 1 4 C0.34 3.67 -0.32 3.34 -1 3 C-0.7525 3.5775 -0.505 4.155 -0.25 4.75 C0 7 0 7 -1.5 9.1875 C-4.64765087 11.46954688 -7.16967201 11.70535939 -11 12 C-10.29875 11.319375 -9.5975 10.63875 -8.875 9.9375 C-5.72065663 6.79219487 -2.86065696 3.4111614 0 0 Z " fill="#B7596A" transform="translate(306,257)"/>
<path d="M0 0 C0.5534764 2.07553648 1 3.84365964 1 6 C0.34 6 -0.32 6 -1 6 C-1.268125 7.093125 -1.53625 8.18625 -1.8125 9.3125 C-3.39583333 14.22916667 -3.39583333 14.22916667 -6 16 C-6.99 16 -7.98 16 -9 16 C-9 15.34 -9 14.68 -9 14 C-8.34 14 -7.68 14 -7 14 C-6.773125 13.360625 -6.54625 12.72125 -6.3125 12.0625 C-4.51434174 7.86679739 -2.26095979 3.96099444 0 0 Z " fill="#BB5F6F" transform="translate(316,241)"/>
<path d="M0 0 C6.93 0 13.86 0 21 0 C21 2.97 21 5.94 21 9 C19.68 8.34 18.36 7.68 17 7 C17.99 7 18.98 7 20 7 C20 6.01 20 5.02 20 4 C19.34 4 18.68 4 18 4 C18 3.01 18 2.02 18 1 C12.06 1 6.12 1 0 1 C0 0.67 0 0.34 0 0 Z " fill="#FAF9F2" transform="translate(296,381)"/>
<path d="M0 0 C2 1 2 1 3.125 3.375 C4 6 4 6 4 9 C4.66 9 5.32 9 6 9 C7.65 12.3 9.3 15.6 11 19 C10.34 19 9.68 19 9 19 C9 18.34 9 17.68 9 17 C8.01 17 7.02 17 6 17 C5.71125 16.030625 5.4225 15.06125 5.125 14.0625 C4.35785318 10.89335797 4.35785318 10.89335797 2 10 C1.3671875 7.71484375 1.3671875 7.71484375 0.875 4.9375 C0.70742187 4.01839844 0.53984375 3.09929687 0.3671875 2.15234375 C0.24601563 1.44207031 0.12484375 0.73179687 0 0 Z " fill="#9B5060" transform="translate(181,237)"/>
<path d="M0 0 C0.33 0.66 0.66 1.32 1 2 C2.953125 1.47916667 4.90625 0.95833333 6.859375 0.4375 C9 0 9 0 13 0 C12.67 0.66 12.34 1.32 12 2 C11.34 1.67 10.68 1.34 10 1 C10.33 2.32 10.66 3.64 11 5 C10.01 4.67 9.02 4.34 8 4 C8 3.34 8 2.68 8 2 C7.01 2 6.02 2 5 2 C4.67 3.32 4.34 4.64 4 6 C1 5 1 5 -0.1875 2.9375 C-0.5896875 1.9784375 -0.5896875 1.9784375 -1 1 C-0.67 0.67 -0.34 0.34 0 0 Z " fill="#FAF5E6" transform="translate(250,218)"/>
<path d="M0 0 C-0.3125 3.375 -0.3125 3.375 -1 7 C-1.99 7.66 -2.98 8.32 -4 9 C-7 3.25 -7 3.25 -7 1 C-4.53721199 -0.231394 -2.7204945 -0.07159196 0 0 Z " fill="#FCF7E5" transform="translate(283,206)"/>
<path d="M0 0 C1.65 0.33 3.3 0.66 5 1 C5.66 2.98 6.32 4.96 7 7 C3.77208445 9.1519437 2.71599191 9.20086443 -1 9 C0 7 0 7 2 6 C2.33 5.34 2.66 4.68 3 4 C2.01 4 1.02 4 0 4 C0 2.68 0 1.36 0 0 Z " fill="#FBF7E8" transform="translate(265,166)"/>
<path d="M0 0 C4.455 0.99 4.455 0.99 9 2 C9 2.66 9 3.32 9 4 C9.66 4 10.32 4 11 4 C11 4.66 11 5.32 11 6 C11.763125 6.103125 12.52625 6.20625 13.3125 6.3125 C16.17059424 7.04364039 17.15742885 7.76951913 19 10 C15.50596417 9.27623543 12.48001095 7.93714794 9.25 6.4375 C8.26515625 5.98246094 7.2803125 5.52742188 6.265625 5.05859375 C5.51796875 4.70925781 4.7703125 4.35992187 4 4 C4 3.34 4 2.68 4 2 C2.68 1.67 1.36 1.34 0 1 C0 0.67 0 0.34 0 0 Z " fill="#8E475A" transform="translate(197,293)"/>
<path d="M0 0 C0.66 0 1.32 0 2 0 C1.01 6.93 0.02 13.86 -1 21 C-1.33 21 -1.66 21 -2 21 C-2.33 17.37 -2.66 13.74 -3 10 C-2.34 10 -1.68 10 -1 10 C-1.33 7.36 -1.66 4.72 -2 2 C-1.34 2 -0.68 2 0 2 C0 1.34 0 0.68 0 0 Z " fill="#454A9B" transform="translate(179,187)"/>
<path d="M0 0 C2.31 0 4.62 0 7 0 C6.42636719 0.24492187 5.85273438 0.48984375 5.26171875 0.7421875 C2.62420377 2.20899203 0.89376658 3.94611303 -1.1875 6.125 C-2.44175237 7.43277335 -3.70840483 8.729094 -5 10 C-5.33 10 -5.66 10 -6 10 C-6.125 7.625 -6.125 7.625 -6 5 C-5.34 4.34 -4.68 3.68 -4 3 C-3.01 3 -2.02 3 -1 3 C-0.67 2.01 -0.34 1.02 0 0 Z " fill="#A6ADAB" transform="translate(262,175)"/>
<path d="M0 0 C2.41696872 -0.05411124 4.83271787 -0.09372278 7.25 -0.125 C7.93191406 -0.14175781 8.61382812 -0.15851563 9.31640625 -0.17578125 C16.00251408 -0.24069492 16.00251408 -0.24069492 19 2 C19.33 2.99 19.66 3.98 20 5 C18.35 5.33 16.7 5.66 15 6 C14.80664062 5.35546875 14.61328125 4.7109375 14.4140625 4.046875 C13.11291753 1.65648799 13.11291753 1.65648799 9.9609375 1.390625 C8.18589844 1.32101562 8.18589844 1.32101562 6.375 1.25 C5.18648437 1.19328125 3.99796875 1.1365625 2.7734375 1.078125 C1.85820312 1.05234375 0.94296875 1.0265625 0 1 C0 0.67 0 0.34 0 0 Z " fill="#A6A7A2" transform="translate(174,350)"/>
<path d="M0 0 C2.31 0 4.62 0 7 0 C1.66666667 2.66666667 -3.66666667 5.33333333 -9 8 C-9 6.68 -9 5.36 -9 4 C-5.81237635 1.87491756 -3.73487777 1.4979837 0 1 C0 0.67 0 0.34 0 0 Z " fill="#5157AB" transform="translate(219,143)"/>
<path d="M0 0 C0.66 0.66 1.32 1.32 2 2 C1.06027344 2.09087891 1.06027344 2.09087891 0.1015625 2.18359375 C-0.71570313 2.26738281 -1.53296875 2.35117188 -2.375 2.4375 C-3.18710938 2.51871094 -3.99921875 2.59992188 -4.8359375 2.68359375 C-7.04272805 2.89090114 -7.04272805 2.89090114 -9 4 C-11.3329866 4.04022391 -13.66706666 4.04320247 -16 4 C-15.01 3.67 -14.02 3.34 -13 3 C-13 2.34 -13 1.68 -13 1 C-11.39796533 0.63631108 -9.79325797 0.28438048 -8.1875 -0.0625 C-7.29417969 -0.25972656 -6.40085938 -0.45695313 -5.48046875 -0.66015625 C-3 -1 -3 -1 0 0 Z " fill="#5D64C0" transform="translate(241,138)"/>
<path d="M0 0 C2.475 0.495 2.475 0.495 5 1 C5 1.66 5 2.32 5 3 C5.66 3 6.32 3 7 3 C9.66590937 7.55426184 10.31563182 10.73946963 10 16 C9.67 16 9.34 16 9 16 C8.79375 14.783125 8.5875 13.56625 8.375 12.3125 C7.20009576 7.45851608 4.92180834 5.92049558 1 3 C0.67 2.01 0.34 1.02 0 0 Z " fill="#9C9F9D" transform="translate(268,366)"/>
<path d="M0 0 C6.6 0 13.2 0 20 0 C12.75760694 3.62119653 7.49468385 3.27517188 0 1 C0 0.67 0 0.34 0 0 Z " fill="#949698" transform="translate(247,231)"/>
<path d="M0 0 C0.33 0 0.66 0 1 0 C1 1.65 1 3.3 1 5 C2.32 5.66 3.64 6.32 5 7 C2.03 9.475 2.03 9.475 -1 12 C-0.67 10.35 -0.34 8.7 0 7 C-0.99 6.67 -1.98 6.34 -3 6 C-2.01 4.02 -1.02 2.04 0 0 Z " fill="#D1CFC3" transform="translate(285,206)"/>
<path d="M0 0 C1.67542976 0.28604898 3.34385343 0.61781233 5 1 C4.43628586 4.26954202 3.50037734 5.82575883 1 8 C0.34 7.67 -0.32 7.34 -1 7 C-1.04254356 5.00045254 -1.04080783 2.99958364 -1 1 C-0.67 0.67 -0.34 0.34 0 0 Z " fill="#CAC9BF" transform="translate(272,381)"/>
<path d="M0 0 C0.33 0.66 0.66 1.32 1 2 C0.34 2 -0.32 2 -1 2 C-1.020625 2.598125 -1.04125 3.19625 -1.0625 3.8125 C-2 6 -2 6 -5.3125 7.75 C-9 9 -9 9 -13 9 C-11.72485508 6.44971017 -10.59658703 6.06918289 -8 5 C-7.01 5 -6.02 5 -5 5 C-5 4.34 -5 3.68 -5 3 C-2.5 1.375 -2.5 1.375 0 0 Z " fill="#A95967" transform="translate(294,269)"/>
<path d="M0 0 C1.98 0 3.96 0 6 0 C6 3.3 6 6.6 6 10 C4.68 9.67 3.36 9.34 2 9 C2.33 6.36 2.66 3.72 3 1 C2.01 0.67 1.02 0.34 0 0 Z " fill="#454F9E" transform="translate(235,106)"/>
<path d="M0 0 C5.94 0.66 11.88 1.32 18 2 C18 2.66 18 3.32 18 4 C11.28299653 4.31985731 6.24273068 3.4793824 0 1 C0 0.67 0 0.34 0 0 Z " fill="#9C5661" transform="translate(231,282)"/>
<path d="M0 0 C2.9555377 2.75170751 5.11563315 5.41970299 7 9 C7 9.66 7 10.32 7 11 C6.01 11 5.02 11 4 11 C4 10.01 4 9.02 4 8 C3.01 8 2.02 8 1 8 C0.87625 7.360625 0.7525 6.72125 0.625 6.0625 C0.315625 5.0415625 0.315625 5.0415625 0 4 C-0.66 3.67 -1.32 3.34 -2 3 C-1 1 -1 1 0 0 Z " fill="#5A61C2" transform="translate(327,153)"/>
<path d="M0 0 C1 2 1 2 0.4375 4.1875 C-1.49483953 7.9681643 -4.144387 10.88396946 -7 14 C-7 10.60875254 -6.28030609 9.34146184 -4.625 6.4375 C-4.18414062 5.65246094 -3.74328125 4.86742187 -3.2890625 4.05859375 C-2 2 -2 2 0 0 Z " fill="#575CB4" transform="translate(172,153)"/>
<path d="M0 0 C5 1.66666667 10 3.33333333 15 5 C12.55954831 6.55870341 11.3746897 7.04719594 8.45703125 6.6796875 C7.58433594 6.41414063 6.71164063 6.14859375 5.8125 5.875 C4.93207031 5.62492187 4.05164063 5.37484375 3.14453125 5.1171875 C1 4 1 4 0.19921875 1.8828125 C0.13347656 1.26148438 0.06773437 0.64015625 0 0 Z " fill="#A85565" transform="translate(216,276)"/>
<path d="M0 0 C0.33 0.99 0.66 1.98 1 3 C0.03542166 4.35917857 -0.96854629 5.69084721 -2 7 C-2.70514846 9.14733927 -2.70514846 9.14733927 -3 11 C-3.99 11 -4.98 11 -6 11 C-6 10.01 -6 9.02 -6 8 C-6.66 7.67 -7.32 7.34 -8 7 C-5.36 4.69 -2.72 2.38 0 0 Z " fill="#B8BAB2" transform="translate(271,210)"/>
<path d="M0 0 C1.65 0 3.3 0 5 0 C5.69685498 1.6210103 6.38222861 3.24696066 7.0625 4.875 C7.63677734 6.23238281 7.63677734 6.23238281 8.22265625 7.6171875 C9 10 9 10 8 12 C6.66382103 10.18959679 5.33112616 8.3766216 4 6.5625 C3.2575 5.55316406 2.515 4.54382813 1.75 3.50390625 C0 1 0 1 0 0 Z " fill="#5058A9" transform="translate(304,163)"/>
<path d="M0 0 C1.32 0 2.64 0 4 0 C4 0.99 4 1.98 4 3 C2.7934375 3.37125 2.7934375 3.37125 1.5625 3.75 C0.2940625 4.36875 0.2940625 4.36875 -1 5 C-1.65213292 7.02463255 -1.65213292 7.02463255 -2 9 C-2.99 9.33 -3.98 9.66 -5 10 C-4.125 5.25 -4.125 5.25 -3 3 C-2.34 3 -1.68 3 -1 3 C-0.67 2.01 -0.34 1.02 0 0 Z " fill="#6B6DF1" transform="translate(232,85)"/>
<path d="M0 0 C1.65 0 3.3 0 5 0 C5 0.99 5 1.98 5 3 C5.66 3 6.32 3 7 3 C7.33 3.66 7.66 4.32 8 5 C8.99 5.66 9.98 6.32 11 7 C8.125 7.1875 8.125 7.1875 5 7 C4.34 6.01 3.68 5.02 3 4 C2.01 3.67 1.02 3.34 0 3 C0 2.01 0 1.02 0 0 Z " fill="#BFBFBD" transform="translate(183,358)"/>
<path d="M0 0 C3.75563429 2.20919664 7.38776679 4.56384272 11 7 C8.83032311 7.95465783 7.43671207 8.14401212 5.17578125 7.3984375 C3.4315257 6.64129615 1.71372869 5.82390802 0 5 C0 3.35 0 1.7 0 0 Z " fill="#AF5964" transform="translate(200,265)"/>
<path d="M0 0 C0.33 0 0.66 0 1 0 C1.35882213 3.22939919 1.27258004 4.61209763 -0.625 7.3125 C-3.60457419 9.42956587 -5.42236811 9.32523926 -9 9 C-8.38125 8.7525 -7.7625 8.505 -7.125 8.25 C-4.6170261 6.77472123 -4.07707051 5.65125048 -3 3 C-2.67 2.34 -2.34 1.68 -2 1 C-1.34 1.33 -0.68 1.66 0 2 C0 1.34 0 0.68 0 0 Z " fill="#9FA1A0" transform="translate(263,203)"/>
<path d="M0 0 C0.33 0 0.66 0 1 0 C1.36622304 6.46994034 1.36622304 6.46994034 -0.1875 8.71875 C-2.62717234 10.44334597 -4.23127272 10.30267769 -7.1875 10.1875 C-8.08855469 10.16042969 -8.98960937 10.13335937 -9.91796875 10.10546875 C-10.60503906 10.07066406 -11.29210937 10.03585937 -12 10 C-11.67 9.34 -11.34 8.68 -11 8 C-8.69 8 -6.38 8 -4 8 C-2.68 5.36 -1.36 2.72 0 0 Z " fill="#A1A19E" transform="translate(229,372)"/>
<path d="M0 0 C7.75 -0.125 7.75 -0.125 10 1 C9.625 3.9375 9.625 3.9375 9 7 C8.01 7.495 8.01 7.495 7 8 C6.4375 6.0625 6.4375 6.0625 6 4 C6.33 3.67 6.66 3.34 7 3 C4.69 2.67 2.38 2.34 0 2 C0 1.34 0 0.68 0 0 Z " fill="#A2A3A3" transform="translate(189,376)"/>
<path d="M0 0 C3 1 3 1 4.625 3.0625 C8.17599355 5.95936316 11.58482444 5.33962889 16 5 C15.67 5.66 15.34 6.32 15 7 C13.58344207 7.0272415 12.16672955 7.04650467 10.75 7.0625 C9.56664062 7.07990234 9.56664062 7.07990234 8.359375 7.09765625 C6.03141815 7.00130042 4.18291938 6.81626259 2 6 C0 3 0 3 0 0 Z " fill="#9D9D9C" transform="translate(126,375)"/>
<path d="M0 0 C0 4.38968456 -2.12805101 5.76905739 -5 9 C-5.66 8.67 -6.32 8.34 -7 8 C-6.38722388 5.03824877 -5.74627478 3.61941217 -4 1 C-1.875 0.3125 -1.875 0.3125 0 0 Z " fill="#BDBDBA" transform="translate(413,360)"/>
<path d="M0 0 C0.66 1.32 1.32 2.64 2 4 C1.01 4.66 0.02 5.32 -1 6 C-1.28875 6.680625 -1.5775 7.36125 -1.875 8.0625 C-3 10 -3 10 -5.625 10.75 C-6.40875 10.8325 -7.1925 10.915 -8 11 C-6.63629701 8.00779732 -5.05091917 5.70973471 -2.875 3.25 C-2.33617187 2.63640625 -1.79734375 2.0228125 -1.2421875 1.390625 C-0.62730469 0.70226562 -0.62730469 0.70226562 0 0 Z " fill="#B1B1B0" transform="translate(407,353)"/>
<path d="M0 0 C0.99 0.33 1.98 0.66 3 1 C2.07347299 2.17539996 1.13336613 3.34010577 0.1875 4.5 C-0.33457031 5.1496875 -0.85664063 5.799375 -1.39453125 6.46875 C-3 8 -3 8 -6 8 C-6.33 6.68 -6.66 5.36 -7 4 C-5.33333333 4 -3.66666667 4 -2 4 C-2 3.34 -2 2.68 -2 2 C-1.34 2 -0.68 2 0 2 C0 1.34 0 0.68 0 0 Z " fill="#BEBEB6" transform="translate(249,249)"/>
<path d="M0 0 C5.28 0 10.56 0 16 0 C14 5 14 5 12 6 C12 5.01 12 4.02 12 3 C11.30132812 2.95101562 10.60265625 2.90203125 9.8828125 2.8515625 C8.97273438 2.77679688 8.06265625 2.70203125 7.125 2.625 C6.22007812 2.55539063 5.31515625 2.48578125 4.3828125 2.4140625 C2 2 2 2 0 0 Z " fill="#929F99" transform="translate(249,235)"/>
<path d="M0 0 C1.98 0 3.96 0 6 0 C5.34 1.98 4.68 3.96 4 6 C3.01 6 2.02 6 1 6 C0.34 5.34 -0.32 4.68 -1 4 C-0.625 1.875 -0.625 1.875 0 0 Z " fill="#FDF8E6" transform="translate(146,357)"/>
<path d="M0 0 C2.54620938 0.3637442 3.68180393 0.57966691 5.265625 2.671875 C8.54945055 9.6043956 8.54945055 9.6043956 8 14 C6.5393715 11.35261084 6 10.10551666 6 7 C5.34 7 4.68 7 4 7 C4 6.34 4 5.68 4 5 C3.34 5 2.68 5 2 5 C1.34 3.35 0.68 1.7 0 0 Z " fill="#444C96" transform="translate(267,83)"/>
<path d="M0 0 C2 2 2 2 2.125 5.125 C2.08375 6.07375 2.0425 7.0225 2 8 C2.66 8 3.32 8 4 8 C3.67 10.31 3.34 12.62 3 15 C0.25217311 9.68753468 -0.09669018 5.89810092 0 0 Z " fill="#9F4F62" transform="translate(154,224)"/>
<path d="M0 0 C0.33 1.32 0.66 2.64 1 4 C4.3 4.33 7.6 4.66 11 5 C11 5.33 11 5.66 11 6 C6.05 6.33 1.1 6.66 -4 7 C-2 2 -2 2 0 0 Z " fill="#6F7478" transform="translate(237,183)"/>
<path d="M0 0 C0.99 0.33 1.98 0.66 3 1 C1.38405168 3.04119788 -0.2856382 5.04072937 -2 7 C-2.66 7 -3.32 7 -4 7 C-4.66 8.65 -5.32 10.3 -6 12 C-6.33 10.68 -6.66 9.36 -7 8 C-6.34 8 -5.68 8 -5 8 C-4.9175 7.38125 -4.835 6.7625 -4.75 6.125 C-4 4 -4 4 -1.9375 2.75 C-1.298125 2.5025 -0.65875 2.255 0 2 C0 1.34 0 0.68 0 0 Z " fill="#4C539B" transform="translate(195,161)"/>
<path d="M0 0 C0 0.99 0 1.98 0 3 C-2.97 3 -5.94 3 -9 3 C-9 2.34 -9 1.68 -9 1 C-5.57367167 -0.61798838 -3.61944899 -1.34053666 0 0 Z " fill="#EBE9E3" transform="translate(277,358)"/>
<path d="M0 0 C2.39489543 0.74324341 3.70777616 1.47057354 4.93359375 3.69140625 C5.67219923 5.44073501 6.34049685 7.21934149 7 9 C6.01 9 5.02 9 4 9 C0 2.25 0 2.25 0 0 Z " fill="#AA5665" transform="translate(164,256)"/>
<path d="M0 0 C1.35439668 2.70879335 1.06501451 5.00933268 1 8 C-1.4375 7.3125 -1.4375 7.3125 -4 6 C-4.8125 3.375 -4.8125 3.375 -5 1 C-3.35 0.67 -1.7 0.34 0 0 Z " fill="#DBD9CF" transform="translate(253,203)"/>
<path d="M0 0 C0.33 0.66 0.66 1.32 1 2 C-0.48737057 5.49532085 -1.91067434 8.68300576 -5 11 C-5.99 11 -6.98 11 -8 11 C-6.63055898 8.05043472 -5.12169591 5.47531189 -3 3 C-2.34 3 -1.68 3 -1 3 C-0.67 2.01 -0.34 1.02 0 0 Z " fill="#5459B0" transform="translate(181,142)"/>
<path d="M0 0 C0.66 0.33 1.32 0.66 2 1 C-1.82180842 5.4008703 -4.47371099 6.80805531 -10 8 C-6.91367389 4.7373124 -4.06516496 1.97764782 0 0 Z " fill="#4D55A7" transform="translate(202,126)"/>
<path d="M0 0 C1.99097846 2.98646769 2.94124926 5.59687262 4 9 C3.34 9.66 2.68 10.32 2 11 C1.38125 9.6078125 1.38125 9.6078125 0.75 8.1875 C-0.93441786 5.11945319 -2.08454083 3.80959535 -5 2 C-3.35 2 -1.7 2 0 2 C0 1.34 0 0.68 0 0 Z " fill="#B1B0AB" transform="translate(144,358)"/>
<path d="M0 0 C-0.99 0.66 -1.98 1.32 -3 2 C-3 1.34 -3 0.68 -3 0 C-3.66 0 -4.32 0 -5 0 C-5.33 0.99 -5.66 1.98 -6 3 C-6.99 3 -7.98 3 -9 3 C-9 5.31 -9 7.62 -9 10 C-9.33 10 -9.66 10 -10 10 C-10.48428405 2.61466822 -10.48428405 2.61466822 -8.375 -0.0625 C-5.25187355 -1.29531307 -3.20959534 -0.80239884 0 0 Z " fill="#929697" transform="translate(332,335)"/>
<path d="M0 0 C0.33 0.99 0.66 1.98 1 3 C-1.31 4.98 -3.62 6.96 -6 9 C-6 7.02 -6 5.04 -6 3 C-4.35 3 -2.7 3 -1 3 C-0.67 2.01 -0.34 1.02 0 0 Z " fill="#BA5D6F" transform="translate(322,274)"/>
<path d="M0 0 C0.33 0.66 0.66 1.32 1 2 C-0.07192184 3.3218362 -1.15802695 4.63217927 -2.25 5.9375 C-2.85328125 6.66839844 -3.4565625 7.39929688 -4.078125 8.15234375 C-6.10741134 10.10326334 -7.254407 10.61731779 -10 11 C-6.79239749 7.19364503 -3.59253891 3.45436433 0 0 Z " fill="#8F9190" transform="translate(217,203)"/>
<path d="M0 0 C0.66 0.33 1.32 0.66 2 1 C0.6875 3.5 0.6875 3.5 -1 6 C-1.99 6 -2.98 6 -4 6 C-4 6.66 -4 7.32 -4 8 C-5.32 7.67 -6.64 7.34 -8 7 C-7.34 7 -6.68 7 -6 7 C-6 6.34 -6 5.68 -6 5 C-4.04072937 3.2856382 -2.04119788 1.61594832 0 0 Z " fill="#5B61B8" transform="translate(190,134)"/>
<path d="M0 0 C0.33 0 0.66 0 1 0 C1.55573751 2.12136362 2.09421768 4.24725521 2.625 6.375 C2.92664063 7.55835938 3.22828125 8.74171875 3.5390625 9.9609375 C3.69117187 10.96382813 3.84328125 11.96671875 4 13 C3.34 13.66 2.68 14.32 2 15 C-0.59227518 10.13948404 -0.18689553 5.34728867 0 0 Z " fill="#808280" transform="translate(115,366)"/>
<path d="M0 0 C0.66 0.66 1.32 1.32 2 2 C1.625 4.625 1.625 4.625 1 7 C-0.98 6.34 -2.96 5.68 -5 5 C-5 4.34 -5 3.68 -5 3 C-4.34 3 -3.68 3 -3 3 C-3 2.34 -3 1.68 -3 1 C-2.01 0.67 -1.02 0.34 0 0 Z " fill="#FCF9EC" transform="translate(173,352)"/>
<path d="M0 0 C-0.9590625 0.5878125 -0.9590625 0.5878125 -1.9375 1.1875 C-4.43778819 3.38472296 -4.64950425 4.75791433 -5 8 C-5.99 7.67 -6.98 7.34 -8 7 C-7.625 4.0625 -7.625 4.0625 -7 1 C-4.53721199 -0.231394 -2.7204945 -0.07159196 0 0 Z " fill="#FBF8EF" transform="translate(244,213)"/>
<path d="M0 0 C3.39417765 3.12621626 5.6062718 5.56541027 7 10 C4.0625 8.9375 4.0625 8.9375 1 7 C0.125 3.3125 0.125 3.3125 0 0 Z " fill="#ACADA9" transform="translate(413,376)"/>
<path d="M0 0 C2.31 0 4.62 0 7 0 C7.625 1.875 7.625 1.875 8 4 C7.34 4.66 6.68 5.32 6 6 C5.34 4.68 4.68 3.36 4 2 C3.01 2.66 2.02 3.32 1 4 C0.67 2.68 0.34 1.36 0 0 Z " fill="#FCF9ED" transform="translate(189,378)"/>
<path d="M0 0 C1.27230469 0.01804687 2.54460937 0.03609375 3.85546875 0.0546875 C5.31919922 0.08949219 5.31919922 0.08949219 6.8125 0.125 C6.8125 1.115 6.8125 2.105 6.8125 3.125 C6.4825 2.465 6.1525 1.805 5.8125 1.125 C1.8525 1.125 -2.1075 1.125 -6.1875 1.125 C-6.5175 2.115 -6.8475 3.105 -7.1875 4.125 C-8.1775 3.465 -9.1675 2.805 -10.1875 2.125 C-6.4507157 -0.36618953 -4.44298181 -0.0815226 0 0 Z " fill="#969898" transform="translate(364.1875,349.875)"/>
<path d="M0 0 C3.31529273 0.98562757 4.74949379 1.65447419 6.8125 4.5 C8 7 8 7 8 9 C7.34 9 6.68 9 6 9 C4.4921875 7.28515625 4.4921875 7.28515625 2.875 5.0625 C2.33617187 4.33160156 1.79734375 3.60070312 1.2421875 2.84765625 C0 1 0 1 0 0 Z " fill="#A7535F" transform="translate(171,268)"/>
<path d="M0 0 C0.66 0.33 1.32 0.66 2 1 C1.6189482 3.76262553 1.16402868 4.84143894 -0.875 6.8125 C-1.57625 7.204375 -2.2775 7.59625 -3 8 C-3.99 7.67 -4.98 7.34 -6 7 C-5.34 6.01 -4.68 5.02 -4 4 C-3.34 4 -2.68 4 -2 4 C-2 3.34 -2 2.68 -2 2 C-1.34 2 -0.68 2 0 2 C0 1.34 0 0.68 0 0 Z " fill="#AEB2B1" transform="translate(244,175)"/>
<path d="M0 0 C2.97 0.495 2.97 0.495 6 1 C6.33 2.32 6.66 3.64 7 5 C5.125 5.625 5.125 5.625 3 6 C0.8614515 3.8614515 0.57344937 2.86724686 0 0 Z " fill="#D76474" transform="translate(208,273)"/>
<path d="M0 0 C0.66 0 1.32 0 2 0 C1.55090939 1.48199902 1.09043436 2.96055236 0.625 4.4375 C0.36976563 5.26121094 0.11453125 6.08492188 -0.1484375 6.93359375 C-1 9 -1 9 -3 10 C-2.25 2.25 -2.25 2.25 0 0 Z " fill="#A45560" transform="translate(337,250)"/>
<path d="M0 0 C0.99 0 1.98 0 3 0 C3.99 3.3 4.98 6.6 6 10 C5.34 10.66 4.68 11.32 4 12 C3.3291288 10.3767313 2.66342971 8.75132422 2 7.125 C1.62875 6.22007812 1.2575 5.31515625 0.875 4.3828125 C0 2 0 2 0 0 Z " fill="#555BB1" transform="translate(315,179)"/>
<path d="M0 0 C0.66 0.33 1.32 0.66 2 1 C1.34 1.66 0.68 2.32 0 3 C-0.71408334 4.98356483 -1.38617742 6.98315437 -2 9 C-3.32 8.67 -4.64 8.34 -6 8 C-6 7.34 -6 6.68 -6 6 C-5.34 6 -4.68 6 -4 6 C-4 5.34 -4 4.68 -4 4 C-3.34 4 -2.68 4 -2 4 C-1.34 2.68 -0.68 1.36 0 0 Z " fill="#9E9FA3" transform="translate(252,167)"/>
<path d="M0 0 C0.33 0 0.66 0 1 0 C1.625 2.8125 1.625 2.8125 2 6 C1.01 7.485 1.01 7.485 0 9 C-0.99 8.67 -1.98 8.34 -3 8 C-1.125 1.125 -1.125 1.125 0 0 Z " fill="#575FB7" transform="translate(163,167)"/>
<path d="M0 0 C1.875 0.3125 1.875 0.3125 4 1 C6 4 6 4 5.625 6.1875 C5.41875 6.785625 5.2125 7.38375 5 8 C2.5 5.6875 2.5 5.6875 0 3 C0 2.01 0 1.02 0 0 Z " fill="#575EB6" transform="translate(298,155)"/>
<path d="M0 0 C4.67692308 1.47692308 4.67692308 1.47692308 6.3125 4.125 C6.539375 4.74375 6.76625 5.3625 7 6 C4.03 5.505 4.03 5.505 1 5 C0.67 3.35 0.34 1.7 0 0 Z " fill="#AFB2AF" transform="translate(146,352)"/>
<path d="M0 0 C0.66 0 1.32 0 2 0 C2 1.32 2 2.64 2 4 C2.66 4 3.32 4 4 4 C3.67 4.99 3.34 5.98 3 7 C1.35 6.01 -0.3 5.02 -2 4 C-1.34 2.68 -0.68 1.36 0 0 Z " fill="#E56C7C" transform="translate(172,263)"/>
<path d="M0 0 C0.99 0.66 1.98 1.32 3 2 C-0.465 4.97 -0.465 4.97 -4 8 C-4.33 7.01 -4.66 6.02 -5 5 C-4.01 5 -3.02 5 -2 5 C-1.7834375 4.0409375 -1.7834375 4.0409375 -1.5625 3.0625 C-1 1 -1 1 0 0 Z " fill="#B8B8B4" transform="translate(258,240)"/>
<path d="M0 0 C1.24546405 2.49092811 0.7767578 3.41080733 0 6 C1.32 6.66 2.64 7.32 4 8 C4 9.32 4 10.64 4 12 C3.34 12 2.68 12 2 12 C-0.82918336 8.30029868 -1.41935884 5.61294726 -1 1 C-0.67 0.67 -0.34 0.34 0 0 Z " fill="#8D9393" transform="translate(236,214)"/>
<path d="M0 0 C0.99 0.33 1.98 0.66 3 1 C1.68 3.64 0.36 6.28 -1 9 C-1.66 8.67 -2.32 8.34 -3 8 C-2.74438677 5.6568787 -2.40729228 3.32156597 -2 1 C-1.34 0.67 -0.68 0.34 0 0 Z " fill="#535BB5" transform="translate(183,177)"/>
<path d="M0 0 C3.24208567 0.35049575 4.61527704 0.56221181 6.8125 3.0625 C7.204375 3.701875 7.59625 4.34125 8 5 C7.01 5.495 7.01 5.495 6 6 C3.5249829 4.88568235 1.32116581 3.41849022 -1 2 C-0.67 1.34 -0.34 0.68 0 0 Z " fill="#585DB8" transform="translate(286,147)"/>
<path d="M0 0 C3.9492568 0.55105909 7.34920174 1.38935371 11 3 C10.34 3.66 9.68 4.32 9 5 C7.68445015 4.5504955 6.37261642 4.09010284 5.0625 3.625 C4.33160156 3.36976562 3.60070312 3.11453125 2.84765625 2.8515625 C1 2 1 2 0 0 Z " fill="#535BAD" transform="translate(276,119)"/>
<path d="M0 0 C3.465 1.485 3.465 1.485 7 3 C6.01 3.99 5.02 4.98 4 6 C2 4.6875 2 4.6875 0 3 C0 2.01 0 1.02 0 0 Z " fill="#C1C1BA" transform="translate(246,365)"/>
<path d="M0 0 C-0.25561323 2.3431213 -0.59270772 4.67843403 -1 7 C-1.99 7.495 -1.99 7.495 -3 8 C-3.33 5.69 -3.66 3.38 -4 1 C-2 0 -2 0 0 0 Z " fill="#B4B5B2" transform="translate(335,339)"/>
<path d="M0 0 C0.33 0 0.66 0 1 0 C1 1.65 1 3.3 1 5 C-0.98 5.66 -2.96 6.32 -5 7 C-5 6.34 -5 5.68 -5 5 C-4.34 5 -3.68 5 -3 5 C-2.5359375 4.0409375 -2.5359375 4.0409375 -2.0625 3.0625 C-1 1 -1 1 0 0 Z " fill="#BCBBB8" transform="translate(281,200)"/>
<path d="M0 0 C4.8 2.46153846 4.8 2.46153846 5.8125 5.1875 C5.874375 5.785625 5.93625 6.38375 6 7 C4.68 7 3.36 7 2 7 C1.34 4.69 0.68 2.38 0 0 Z " fill="#5059A7" transform="translate(315,121)"/>
<path d="M0 0 C1.32 0.33 2.64 0.66 4 1 C4 1.66 4 2.32 4 3 C3.34 3 2.68 3 2 3 C1.67 4.32 1.34 5.64 1 7 C0.01 6.67 -0.98 6.34 -2 6 C-1.34 4.02 -0.68 2.04 0 0 Z " fill="#FCFAEA" transform="translate(146,376)"/>
<path d="M0 0 C0.9075 0.226875 1.815 0.45375 2.75 0.6875 C0.75 2.6875 0.75 2.6875 -1.1953125 2.8828125 C-3.21354167 2.81770833 -5.23177083 2.75260417 -7.25 2.6875 C-4.61280971 0.1517401 -3.74095095 -0.35970682 0 0 Z " fill="#BE616D" transform="translate(270.25,305.3125)"/>
<path d="M0 0 C0.5534764 2.07553648 1 3.84365964 1 6 C0.34 6 -0.32 6 -1 6 C-1.33 6.99 -1.66 7.98 -2 9 C-2.66 9 -3.32 9 -4 9 C-2.80100302 5.9168649 -1.52299523 2.93720508 0 0 Z " fill="#A04E5D" transform="translate(316,241)"/>
<path d="M0 0 C2 1 2 1 2.8515625 3.06640625 C3.10679687 3.89011719 3.36203125 4.71382812 3.625 5.5625 C3.88539063 6.38878906 4.14578125 7.21507812 4.4140625 8.06640625 C4.60742188 8.70449219 4.80078125 9.34257812 5 10 C4.01 10 3.02 10 2 10 C1.34 6.7 0.68 3.4 0 0 Z " fill="#B05B6C" transform="translate(181,237)"/>
<path d="M0 0 C0.66 0.99 1.32 1.98 2 3 C1.360625 3.103125 0.72125 3.20625 0.0625 3.3125 C-0.618125 3.539375 -1.29875 3.76625 -2 4 C-2.33 4.99 -2.66 5.98 -3 7 C-3.99 6.67 -4.98 6.34 -6 6 C-4.02 4.02 -2.04 2.04 0 0 Z " fill="#8B8D8A" transform="translate(240,241)"/>
<path d="M0 0 C1.98 0.66 3.96 1.32 6 2 C6 2.33 6 2.66 6 3 C2.7 3.33 -0.6 3.66 -4 4 C-2.68 2.68 -1.36 1.36 0 0 Z " fill="#3A418A" transform="translate(306,116)"/>
<path d="M0 0 C-0.33 0.99 -0.66 1.98 -1 3 C-3.64 2.67 -6.28 2.34 -9 2 C-5.86501708 0.14223235 -3.62528568 -0.20140476 0 0 Z " fill="#B1556C" transform="translate(278,280)"/>
<path d="M0 0 C0.33 0 0.66 0 1 0 C1.66 3.96 2.32 7.92 3 12 C2.34 12 1.68 12 1 12 C-0.26237731 9.47524538 -0.09856404 7.68799534 -0.0625 4.875 C-0.05347656 3.96492187 -0.04445312 3.05484375 -0.03515625 2.1171875 C-0.02355469 1.41851562 -0.01195312 0.71984375 0 0 Z " fill="#D96C7A" transform="translate(175,213)"/>
<path d="M0 0 C0.66 0.33 1.32 0.66 2 1 C1.67 4.3 1.34 7.6 1 11 C-1.78637633 6.8204355 -0.79562512 4.85331323 0 0 Z " fill="#F8F7ED" transform="translate(170,362)"/>
<path d="M0 0 C0.99 0 1.98 0 3 0 C4 2 4 2 3.0625 5.125 C2.711875 6.07375 2.36125 7.0225 2 8 C1.34 8 0.68 8 0 8 C0 5.36 0 2.72 0 0 Z " fill="#B9B9B2" transform="translate(395,364)"/>
<path d="M0 0 C1.125 3.75 1.125 3.75 0 6 C-1.65 6 -3.3 6 -5 6 C-3.35 4.02 -1.7 2.04 0 0 Z " fill="#82837F" transform="translate(246,235)"/>
<path d="M0 0 C-0.33 0.66 -0.66 1.32 -1 2 C-1.66 1.67 -2.32 1.34 -3 1 C-2.67 2.32 -2.34 3.64 -2 5 C-2.99 4.67 -3.98 4.34 -5 4 C-5 3.34 -5 2.68 -5 2 C-5.99 1.67 -6.98 1.34 -8 1 C-5.10765685 0.17361624 -3.11257569 0 0 0 Z " fill="#C9C7BE" transform="translate(263,218)"/>
<path d="M0 0 C0.625 1.8125 0.625 1.8125 1 4 C0.01 5.485 0.01 5.485 -1 7 C-2.32 6.34 -3.64 5.68 -5 5 C-4.34 5 -3.68 5 -3 5 C-2.67 4.01 -2.34 3.02 -2 2 C-1.34 2 -0.68 2 0 2 C0 1.34 0 0.68 0 0 Z " fill="#FBFAEB" transform="translate(296,198)"/>
<path d="M0 0 C2.5 1.375 2.5 1.375 5 3 C5 3.66 5 4.32 5 5 C5.66 5 6.32 5 7 5 C6.67 5.66 6.34 6.32 6 7 C4.68 6.34 3.36 5.68 2 5 C2 4.34 2 3.68 2 3 C1.34 3 0.68 3 0 3 C0 2.01 0 1.02 0 0 Z " fill="#A1A3A3" transform="translate(288,166)"/>
<path d="M0 0 C1.32 0.33 2.64 0.66 4 1 C3.34 1.66 2.68 2.32 2 3 C1.3574765 5.06874034 1.3574765 5.06874034 1 7 C1.66 7 2.32 7 3 7 C2.67 7.66 2.34 8.32 2 9 C1.34 8.67 0.68 8.34 0 8 C0 5.36 0 2.72 0 0 Z " fill="#4A4FA0" transform="translate(315,134)"/>
<path d="" fill="#000000" transform="translate(0,0)"/>
<path d="" fill="#000000" transform="translate(0,0)"/>
<path d="" fill="#000000" transform="translate(0,0)"/>
<path d="" fill="#000000" transform="translate(0,0)"/>
<path d="" fill="#000000" transform="translate(0,0)"/>
<path d="" fill="#000000" transform="translate(0,0)"/>
<path d="" fill="#000000" transform="translate(0,0)"/>
<path d="" fill="#000000" transform="translate(0,0)"/>
<path d="" fill="#000000" transform="translate(0,0)"/>
<path d="" fill="#000000" transform="translate(0,0)"/>
<path d="" fill="#000000" transform="translate(0,0)"/>
<path d="" fill="#000000" transform="translate(0,0)"/>
<path d="" fill="#000000" transform="translate(0,0)"/>
<path d="" fill="#000000" transform="translate(0,0)"/>
<path d="" fill="#000000" transform="translate(0,0)"/>
<path d="" fill="#000000" transform="translate(0,0)"/>
<path d="" fill="#000000" transform="translate(0,0)"/>
<path d="" fill="#000000" transform="translate(0,0)"/>
<path d="" fill="#000000" transform="translate(0,0)"/>
<path d="" fill="#000000" transform="translate(0,0)"/>
<path d="" fill="#000000" transform="translate(0,0)"/>
<path d="" fill="#000000" transform="translate(0,0)"/>
<path d="" fill="#000000" transform="translate(0,0)"/>
<path d="" fill="#000000" transform="translate(0,0)"/>
<path d="" fill="#000000" transform="translate(0,0)"/>
<path d="" fill="#000000" transform="translate(0,0)"/>
<path d="" fill="#000000" transform="translate(0,0)"/>
<path d="" fill="#000000" transform="translate(0,0)"/>
<path d="" fill="#000000" transform="translate(0,0)"/>
<path d="" fill="#000000" transform="translate(0,0)"/>
<path d="" fill="#000000" transform="translate(0,0)"/>
<path d="" fill="#000000" transform="translate(0,0)"/>
<path d="" fill="#000000" transform="translate(0,0)"/>
<path d="" fill="#000000" transform="translate(0,0)"/>
<path d="" fill="#000000" transform="translate(0,0)"/>
<path d="" fill="#000000" transform="translate(0,0)"/>
<path d="" fill="#000000" transform="translate(0,0)"/>
<path d="" fill="#000000" transform="translate(0,0)"/>
<path d="" fill="#000000" transform="translate(0,0)"/>
<path d="" fill="#000000" transform="translate(0,0)"/>
<path d="" fill="#000000" transform="translate(0,0)"/>
<path d="" fill="#000000" transform="translate(0,0)"/>
<path d="" fill="#000000" transform="translate(0,0)"/>
<path d="" fill="#000000" transform="translate(0,0)"/>
<path d="" fill="#000000" transform="translate(0,0)"/>
<path d="" fill="#000000" transform="translate(0,0)"/>
<path d="" fill="#000000" transform="translate(0,0)"/>
<path d="" fill="#000000" transform="translate(0,0)"/>
<path d="" fill="#000000" transform="translate(0,0)"/>
<path d="" fill="#000000" transform="translate(0,0)"/>
<path d="" fill="#000000" transform="translate(0,0)"/>
<path d="" fill="#000000" transform="translate(0,0)"/>
<path d="" fill="#000000" transform="translate(0,0)"/>
<path d="" fill="#000000" transform="translate(0,0)"/>
<path d="" fill="#000000" transform="translate(0,0)"/>
<path d="" fill="#000000" transform="translate(0,0)"/>
<path d="" fill="#000000" transform="translate(0,0)"/>
<path d="" fill="#000000" transform="translate(0,0)"/>
<path d="" fill="#000000" transform="translate(0,0)"/>
<path d="" fill="#000000" transform="translate(0,0)"/>
<path d="" fill="#000000" transform="translate(0,0)"/>
<path d="" fill="#000000" transform="translate(0,0)"/>
<path d="" fill="#000000" transform="translate(0,0)"/>
<path d="" fill="#000000" transform="translate(0,0)"/>
<path d="" fill="#000000" transform="translate(0,0)"/>
<path d="" fill="#000000" transform="translate(0,0)"/>
</svg>
